<?xml version="1.0" encoding="UTF-8"?>
<svg id="light" xmlns="http://www.w3.org/2000/svg" version="1.1" xmlns:xlink="http://www.w3.org/1999/xlink" viewBox="0 0 2000 2007.42">
  <!-- Generator: Adobe Illustrator 29.1.0, SVG Export Plug-In . SVG Version: 2.1.0 Build 142)  -->
  <defs>
    <style>
      .st0 {
        stroke: url(#linear-gradient21);
      }

      .st0, .st1, .st2, .st3, .st4, .st5, .st6, .st7, .st8, .st9, .st10, .st11, .st12, .st13, .st14, .st15, .st16, .st17, .st18, .st19, .st20, .st21, .st22, .st23, .st24, .st25, .st26, .st27, .st28, .st29, .st30, .st31, .st32, .st33, .st34, .st35, .st36, .st37, .st38, .st39, .st40, .st41, .st42, .st43, .st44, .st45, .st46, .st47, .st48 {
        fill: none;
      }

      .st0, .st1, .st2, .st3, .st4, .st5, .st6, .st7, .st8, .st9, .st10, .st11, .st12, .st13, .st14, .st15, .st17, .st18, .st19, .st20, .st21, .st22, .st23, .st24, .st25, .st26, .st27, .st28, .st29, .st30, .st31, .st32, .st33, .st34, .st35, .st36, .st37, .st38, .st39, .st40, .st41, .st42, .st43, .st44, .st45, .st46, .st47, .st48 {
        stroke-miterlimit: 10;
      }

      .st0, .st20 {
        opacity: .91;
        stroke-width: 2.83px;
      }

      .st1 {
        stroke: url(#linear-gradient);
      }

      .st1, .st9 {
        opacity: 0;
      }

      .st2 {
        stroke: url(#linear-gradient22);
      }

      .st2, .st40 {
        opacity: .96;
        stroke-width: 2.91px;
      }

      .st3 {
        stroke: url(#linear-gradient18);
      }

      .st3, .st48 {
        opacity: .78;
        stroke-width: 2.57px;
      }

      .st4 {
        stroke: url(#linear-gradient27);
      }

      .st4, .st42 {
        opacity: .13;
        stroke-width: 1.26px;
      }

      .st5 {
        stroke: url(#linear-gradient5);
      }

      .st5, .st23 {
        opacity: .22;
        stroke-width: 1.43px;
      }

      .st6 {
        stroke: url(#linear-gradient1);
      }

      .st6, .st17 {
        opacity: .04;
        stroke-width: 1.09px;
      }

      .st7 {
        stroke: url(#linear-gradient4);
      }

      .st7, .st33 {
        opacity: .17;
        stroke-width: 1.35px;
      }

      .st8 {
        stroke: url(#linear-gradient13);
      }

      .st8, .st19 {
        opacity: .57;
        stroke-width: 2.13px;
      }

      .st9 {
        stroke: url(#linear-gradient24);
      }

      .st10 {
        stroke: url(#linear-gradient31);
      }

      .st10, .st45 {
        opacity: .3;
        stroke-width: 1.61px;
      }

      .st11 {
        stroke: url(#linear-gradient38);
      }

      .st11, .st26 {
        opacity: .61;
        stroke-width: 2.22px;
      }

      .st12 {
        stroke: url(#linear-gradient2);
      }

      .st12, .st43 {
        opacity: .09;
        stroke-width: 1.17px;
      }

      .st13 {
        stroke: url(#linear-gradient19);
      }

      .st13, .st36 {
        opacity: .83;
        stroke-width: 2.65px;
      }

      .st14 {
        stroke: url(#linear-gradient20);
      }

      .st14, .st24 {
        opacity: .87;
        stroke-width: 2.74px;
      }

      .st15 {
        stroke: url(#linear-gradient15);
      }

      .st15, .st30 {
        opacity: .65;
        stroke-width: 2.3px;
      }

      .st17 {
        stroke: url(#linear-gradient25);
      }

      .st18 {
        stroke: url(#linear-gradient6);
      }

      .st18, .st22 {
        opacity: .26;
        stroke-width: 1.52px;
      }

      .st19 {
        stroke: url(#linear-gradient37);
      }

      .st20 {
        stroke: url(#linear-gradient45);
      }

      .st21 {
        stroke: url(#linear-gradient47);
      }

      .st21, .st37 {
        stroke-width: 3px;
      }

      .st22 {
        stroke: url(#linear-gradient30);
      }

      .st23 {
        stroke: url(#linear-gradient29);
      }

      .st24 {
        stroke: url(#linear-gradient44);
      }

      .st25 {
        stroke: url(#linear-gradient17);
      }

      .st25, .st39 {
        opacity: .74;
        stroke-width: 2.48px;
      }

      .st26 {
        stroke: url(#linear-gradient14);
      }

      .st27 {
        stroke: url(#linear-gradient34);
      }

      .st27, .st46 {
        opacity: .43;
        stroke-width: 1.87px;
      }

      .st28 {
        stroke: url(#linear-gradient33);
      }

      .st28, .st31 {
        opacity: .39;
        stroke-width: 1.78px;
      }

      .st29 {
        stroke: url(#linear-gradient32);
      }

      .st29, .st32 {
        opacity: .35;
        stroke-width: 1.7px;
      }

      .st30 {
        stroke: url(#linear-gradient39);
      }

      .st31 {
        stroke: url(#linear-gradient9);
      }

      .st32 {
        stroke: url(#linear-gradient8);
      }

      .st33 {
        stroke: url(#linear-gradient28);
      }

      .st34 {
        stroke: url(#linear-gradient40);
      }

      .st34, .st41 {
        opacity: .7;
        stroke-width: 2.39px;
      }

      .st35 {
        stroke: url(#linear-gradient11);
      }

      .st35, .st38 {
        opacity: .48;
        stroke-width: 1.96px;
      }

      .st36 {
        stroke: url(#linear-gradient43);
      }

      .st37 {
        stroke: url(#linear-gradient23);
      }

      .st38 {
        stroke: url(#linear-gradient35);
      }

      .st39 {
        stroke: url(#linear-gradient41);
      }

      .st40 {
        stroke: url(#linear-gradient46);
      }

      .st41 {
        stroke: url(#linear-gradient16);
      }

      .st42 {
        stroke: url(#linear-gradient3);
      }

      .st49 {
        clip-path: url(#clippath);
      }

      .st43 {
        stroke: url(#linear-gradient26);
      }

      .st44 {
        stroke: url(#linear-gradient12);
      }

      .st44, .st47 {
        opacity: .52;
        stroke-width: 2.04px;
      }

      .st45 {
        stroke: url(#linear-gradient7);
      }

      .st46 {
        stroke: url(#linear-gradient10);
      }

      .st47 {
        stroke: url(#linear-gradient36);
      }

      .st48 {
        stroke: url(#linear-gradient42);
      }
    </style>
    <clipPath id="clippath">
      <rect class="st16" y="193.4" width="2000" height="1814.02"/>
    </clipPath>
    <linearGradient id="linear-gradient" x1="350.03" y1="2109.46" x2="1683.27" y2="2109.46" gradientTransform="translate(1935.29 3819.67) rotate(-168.69)" gradientUnits="userSpaceOnUse">
      <stop offset=".01" stop-color="#ff3670" stop-opacity="0"/>
      <stop offset=".13" stop-color="#ff3670" stop-opacity="0"/>
      <stop offset=".19" stop-color="#ff3670" stop-opacity=".51"/>
      <stop offset=".24" stop-color="#ff3670"/>
      <stop offset=".34" stop-color="#c6287a"/>
      <stop offset=".52" stop-color="#69118c"/>
      <stop offset=".59" stop-color="#450994"/>
      <stop offset=".64" stop-color="#450994" stop-opacity=".87"/>
      <stop offset=".85" stop-color="#450994" stop-opacity=".25"/>
      <stop offset=".95" stop-color="#450994" stop-opacity="0"/>
    </linearGradient>
    <linearGradient id="linear-gradient1" x1="366.08" y1="2094.61" x2="1700.57" y2="2094.61" gradientTransform="translate(1930.79 3821.36) rotate(-168.55)" xlink:href="#linear-gradient"/>
    <linearGradient id="linear-gradient2" x1="382.14" y1="2079.74" x2="1717.82" y2="2079.74" gradientTransform="translate(1926.3 3823.05) rotate(-168.41)" xlink:href="#linear-gradient"/>
    <linearGradient id="linear-gradient3" x1="398.19" y1="2064.89" x2="1735.01" y2="2064.89" gradientTransform="translate(1921.8 3824.74) rotate(-168.26)" xlink:href="#linear-gradient"/>
    <linearGradient id="linear-gradient4" x1="414.25" y1="2058.87" x2="1752.14" y2="2058.87" gradientTransform="translate(1917.3 3826.43) rotate(-168.12)" xlink:href="#linear-gradient"/>
    <linearGradient id="linear-gradient5" x1="430.3" y1="2053.05" x2="1769.21" y2="2053.05" gradientTransform="translate(1912.81 3828.12) rotate(-167.98)" xlink:href="#linear-gradient"/>
    <linearGradient id="linear-gradient6" x1="446.36" y1="2047.15" x2="1786.23" y2="2047.15" gradientTransform="translate(1908.31 3829.8) rotate(-167.84)" xlink:href="#linear-gradient"/>
    <linearGradient id="linear-gradient7" x1="462.41" y1="2041.17" x2="1803.18" y2="2041.17" gradientTransform="translate(1903.81 3831.49) rotate(-167.69)" xlink:href="#linear-gradient"/>
    <linearGradient id="linear-gradient8" x1="478.46" y1="2035.11" x2="1820.08" y2="2035.11" gradientTransform="translate(1899.32 3833.18) rotate(-167.55)" xlink:href="#linear-gradient"/>
    <linearGradient id="linear-gradient9" x1="494.51" y1="2028.96" x2="1836.91" y2="2028.96" gradientTransform="translate(1894.82 3834.87) rotate(-167.41)" xlink:href="#linear-gradient"/>
    <linearGradient id="linear-gradient10" x1="510.56" y1="2022.74" x2="1853.68" y2="2022.74" gradientTransform="translate(1890.32 3836.56) rotate(-167.26)" xlink:href="#linear-gradient"/>
    <linearGradient id="linear-gradient11" x1="526.61" y1="2016.43" x2="1870.39" y2="2016.43" gradientTransform="translate(1885.83 3838.25) rotate(-167.12)" xlink:href="#linear-gradient"/>
    <linearGradient id="linear-gradient12" x1="542.65" y1="2010.05" x2="1887.03" y2="2010.05" gradientTransform="translate(1881.33 3839.94) rotate(-166.98)" xlink:href="#linear-gradient"/>
    <linearGradient id="linear-gradient13" x1="558.69" y1="2003.58" x2="1903.6" y2="2003.58" gradientTransform="translate(1876.83 3841.63) rotate(-166.83)" xlink:href="#linear-gradient"/>
    <linearGradient id="linear-gradient14" x1="574.72" y1="1988.65" x2="1920.11" y2="1988.65" gradientTransform="translate(1872.34 3843.32) rotate(-166.69)" xlink:href="#linear-gradient"/>
    <linearGradient id="linear-gradient15" x1="590.75" y1="1969.82" x2="1936.55" y2="1969.82" gradientTransform="translate(1867.84 3845.01) rotate(-166.55)" xlink:href="#linear-gradient"/>
    <linearGradient id="linear-gradient16" x1="606.77" y1="1950.75" x2="1952.92" y2="1950.75" gradientTransform="translate(1863.35 3846.7) rotate(-166.41)" xlink:href="#linear-gradient"/>
    <linearGradient id="linear-gradient17" x1="622.79" y1="1931.43" x2="1969.23" y2="1931.43" gradientTransform="translate(1858.85 3848.39) rotate(-166.26)" xlink:href="#linear-gradient"/>
    <linearGradient id="linear-gradient18" x1="638.8" y1="1911.83" x2="1985.46" y2="1911.83" gradientTransform="translate(1854.35 3850.08) rotate(-166.12)" xlink:href="#linear-gradient"/>
    <linearGradient id="linear-gradient19" x1="654.8" y1="1891.95" x2="2001.62" y2="1891.95" gradientTransform="translate(1849.86 3851.77) rotate(-165.98)" xlink:href="#linear-gradient"/>
    <linearGradient id="linear-gradient20" x1="670.8" y1="1871.77" x2="2017.7" y2="1871.77" gradientTransform="translate(1845.36 3853.45) rotate(-165.83)" xlink:href="#linear-gradient"/>
    <linearGradient id="linear-gradient21" x1="686.79" y1="1851.29" x2="2033.71" y2="1851.29" gradientTransform="translate(1840.86 3855.14) rotate(-165.69)" xlink:href="#linear-gradient"/>
    <linearGradient id="linear-gradient22" x1="702.77" y1="1830.49" x2="2049.65" y2="1830.49" gradientTransform="translate(1836.37 3856.83) rotate(-165.55)" xlink:href="#linear-gradient"/>
    <linearGradient id="linear-gradient23" x1="718.74" y1="1809.38" x2="2065.51" y2="1809.38" gradientTransform="translate(1831.87 3858.52) rotate(-165.4)" xlink:href="#linear-gradient"/>
    <linearGradient id="linear-gradient24" x1="-274.35" y1="870.44" x2="2184.2" y2="870.44" gradientTransform="translate(364.03 -153.17) rotate(11.31)" gradientUnits="userSpaceOnUse">
      <stop offset=".05" stop-color="#450994" stop-opacity="0"/>
      <stop offset=".16" stop-color="#33076a" stop-opacity=".53"/>
      <stop offset=".24" stop-color="#230745"/>
      <stop offset=".4" stop-color="#320769"/>
      <stop offset=".56" stop-color="#450994"/>
      <stop offset=".64" stop-color="#73148b" stop-opacity=".75"/>
      <stop offset=".83" stop-color="#e73074" stop-opacity=".13"/>
      <stop offset=".87" stop-color="#ff3670" stop-opacity="0"/>
      <stop offset=".99" stop-color="#ff3670" stop-opacity="0"/>
    </linearGradient>
    <linearGradient id="linear-gradient25" x1="-282.17" y1="854.65" x2="2178.63" y2="854.65" gradientTransform="translate(368.53 -154.86) rotate(11.45)" xlink:href="#linear-gradient24"/>
    <linearGradient id="linear-gradient26" x1="-289.93" y1="839.02" x2="2173.02" y2="839.02" gradientTransform="translate(373.02 -156.55) rotate(11.59)" xlink:href="#linear-gradient24"/>
    <linearGradient id="linear-gradient27" x1="-297.64" y1="823.6" x2="2167.35" y2="823.6" gradientTransform="translate(377.52 -158.24) rotate(11.74)" xlink:href="#linear-gradient24"/>
    <linearGradient id="linear-gradient28" x1="-305.29" y1="824.8" x2="2161.64" y2="824.8" gradientTransform="translate(382.02 -159.93) rotate(11.88)" xlink:href="#linear-gradient24"/>
    <linearGradient id="linear-gradient29" x1="-312.87" y1="826.42" x2="2155.88" y2="826.42" gradientTransform="translate(386.51 -161.62) rotate(12.02)" xlink:href="#linear-gradient24"/>
    <linearGradient id="linear-gradient30" x1="-320.4" y1="828.08" x2="2150.07" y2="828.08" gradientTransform="translate(391.01 -163.31) rotate(12.16)" xlink:href="#linear-gradient24"/>
    <linearGradient id="linear-gradient31" x1="-327.87" y1="829.77" x2="2144.21" y2="829.77" gradientTransform="translate(395.51 -164.99) rotate(12.31)" xlink:href="#linear-gradient24"/>
    <linearGradient id="linear-gradient32" x1="-335.28" y1="831.49" x2="2138.31" y2="831.49" gradientTransform="translate(400 -166.68) rotate(12.45)" xlink:href="#linear-gradient24"/>
    <linearGradient id="linear-gradient33" x1="-342.63" y1="833.25" x2="2132.36" y2="833.25" gradientTransform="translate(404.5 -168.37) rotate(12.59)" xlink:href="#linear-gradient24"/>
    <linearGradient id="linear-gradient34" x1="-349.92" y1="835.05" x2="2126.36" y2="835.05" gradientTransform="translate(409 -170.06) rotate(12.74)" xlink:href="#linear-gradient24"/>
    <linearGradient id="linear-gradient35" x1="-357.14" y1="836.88" x2="2120.31" y2="836.88" gradientTransform="translate(413.49 -171.75) rotate(12.88)" xlink:href="#linear-gradient24"/>
    <linearGradient id="linear-gradient36" x1="-364.31" y1="838.75" x2="2114.21" y2="838.75" gradientTransform="translate(417.99 -173.44) rotate(13.02)" xlink:href="#linear-gradient24"/>
    <linearGradient id="linear-gradient37" x1="-371.41" y1="840.65" x2="2108.06" y2="840.65" gradientTransform="translate(422.49 -175.13) rotate(13.17)" xlink:href="#linear-gradient24"/>
    <linearGradient id="linear-gradient38" x1="-378.45" y1="827.17" x2="2101.87" y2="827.17" gradientTransform="translate(426.98 -176.82) rotate(13.31)" xlink:href="#linear-gradient24"/>
    <linearGradient id="linear-gradient39" x1="-385.42" y1="806.65" x2="2095.62" y2="806.65" gradientTransform="translate(431.48 -178.51) rotate(13.45)" xlink:href="#linear-gradient24"/>
    <linearGradient id="linear-gradient40" x1="-392.33" y1="785.85" x2="2089.33" y2="785.85" gradientTransform="translate(435.98 -180.2) rotate(13.59)" xlink:href="#linear-gradient24"/>
    <linearGradient id="linear-gradient41" x1="-399.18" y1="764.76" x2="2082.98" y2="764.76" gradientTransform="translate(440.47 -181.89) rotate(13.74)" xlink:href="#linear-gradient24"/>
    <linearGradient id="linear-gradient42" x1="-405.96" y1="743.36" x2="2076.59" y2="743.36" gradientTransform="translate(444.97 -183.58) rotate(13.88)" xlink:href="#linear-gradient24"/>
    <linearGradient id="linear-gradient43" x1="-412.68" y1="721.6" x2="2070.15" y2="721.6" gradientTransform="translate(449.47 -185.27) rotate(14.02)" xlink:href="#linear-gradient24"/>
    <linearGradient id="linear-gradient44" x1="-419.34" y1="699.48" x2="2063.65" y2="699.48" gradientTransform="translate(453.96 -186.96) rotate(14.17)" xlink:href="#linear-gradient24"/>
    <linearGradient id="linear-gradient45" x1="-425.93" y1="676.98" x2="2057.11" y2="676.98" gradientTransform="translate(458.46 -188.64) rotate(14.31)" xlink:href="#linear-gradient24"/>
    <linearGradient id="linear-gradient46" x1="-432.45" y1="654.08" x2="2050.51" y2="654.08" gradientTransform="translate(462.95 -190.33) rotate(14.45)" xlink:href="#linear-gradient24"/>
    <linearGradient id="linear-gradient47" x1="-438.91" y1="630.78" x2="2043.87" y2="630.78" gradientTransform="translate(467.45 -192.02) rotate(14.6)" xlink:href="#linear-gradient24"/>
  </defs>
  <g class="st49">
    <g>
      <path class="st1" d="M1957.12,1924.74c-39.45-13.66-71.61-82.99-96.99-157.3-25.38-74.3-47.04-157.68-78.16-217.87-61.92-119.74-148.87-125.3-227.52-101.21-78.65,24.09-158.05,72.22-236.18,39.82-37.53-15.56-73.72-49.76-105.67-99.86-23.8-37.31-45.46-83.57-71.44-111.1-43.15-45.73-92.94-34.3-138.83-8.46-45.89,25.84-90.83,65.3-137.82,73.62-46.99,8.32-98.37-20.63-128.39-108.46"/>
      <path class="st6" d="M1941.66,1923.12c-39.22-15.3-71.57-83.56-97.49-156.19-25.92-72.64-48.34-153.57-79.84-211.84-52.79-97.63-122.63-116.45-190.28-104.28-12.68,2.28-25.28,5.65-37.68,9.77-50.35,16.7-100.91,43.49-151.37,52.56-28.21,5.06-56.39,4.59-84.43-6.05-31.2-11.83-61.55-36.28-89.41-71.86-5.67-7.25-11.25-14.96-16.7-23.11-24.01-35.91-45.99-80.68-72.03-107.87-30.78-32.14-64.69-37.11-98.04-29.74-13.54,2.99-26.98,8.02-40.1,14.16-18.68,8.76-37.19,19.67-55.78,29.9-26.61,14.66-53.4,27.94-80.92,31.12-46.74,5.41-97.85-24.14-128.59-109.24"/>
      <path class="st12" d="M1926.19,1921.49c-38.99-16.94-71.52-84.12-97.98-155.09-26.47-70.97-49.65-149.45-81.52-205.81-53.45-94.43-123.22-112.2-190.77-98.49-12.67,2.57-25.25,6.25-37.63,10.67-50.26,17.95-100.63,46.18-151.03,56.69-28.16,5.85-56.33,6.16-84.38-3.49-31.23-10.73-61.66-33.85-89.72-67.92-5.71-6.94-11.33-14.34-16.84-22.18-24.23-34.51-46.51-77.78-72.62-104.65-30.86-31.75-64.65-38.09-97.73-33.27-13.44,1.94-26.75,5.74-39.74,10.58-18.5,6.9-36.8,15.78-55.22,24.13-26.37,11.96-52.98,22.83-80.36,24.3-46.49,2.51-97.33-27.66-128.8-110.02"/>
      <path class="st42" d="M1910.72,1919.87c-38.76-18.57-71.48-84.69-98.48-153.98-27.01-69.3-50.96-145.34-83.2-199.77-54.1-91.23-123.81-107.95-191.26-92.7-12.65,2.86-25.21,6.84-37.57,11.58-50.18,19.2-100.35,48.88-150.69,60.82-28.12,6.65-56.27,7.74-84.34-.93-31.25-9.64-61.77-31.41-90.02-63.98-5.75-6.63-11.42-13.72-16.97-21.24-24.44-33.12-47.03-74.89-73.2-101.42-30.95-31.37-64.6-39.07-97.41-36.8-13.33.9-26.51,3.47-39.37,6.99-18.31,5.04-36.41,11.9-54.67,18.36-26.13,9.26-52.57,17.72-79.79,17.48-46.25-.4-96.8-31.17-129-110.79"/>
      <path class="st7" d="M1895.26,1918.25c-38.53-20.21-71.44-85.26-98.97-152.87-27.55-67.63-52.27-141.22-84.88-193.74-54.75-88.03-124.4-103.7-191.76-86.91-12.64,3.16-25.18,7.44-37.52,12.49-50.09,20.45-100.07,51.58-150.34,64.95-28.07,7.44-56.22,9.32-84.3,1.63-31.28-8.54-61.88-28.97-90.33-60.04-5.79-6.33-11.5-13.1-17.11-20.31-24.66-31.72-47.55-71.99-73.79-98.19-31.03-30.98-64.55-40.04-97.09-40.32-13.23-.14-26.27,1.2-39.01,3.4-18.12,3.18-36.02,8.01-54.11,12.58-25.88,6.57-52.15,12.61-79.23,10.66-46-3.3-96.28-34.68-129.2-111.57"/>
      <path class="st5" d="M1879.79,1916.62c-38.3-21.85-71.39-85.82-99.46-151.77-28.1-65.97-53.58-137.11-86.57-187.71-55.4-84.83-124.99-99.45-192.25-81.12-12.62,3.45-25.14,8.03-37.47,13.39-50,21.7-99.79,54.28-150,69.08-28.02,8.23-56.16,10.89-84.26,4.19-31.3-7.44-61.99-26.53-90.63-56.1-5.83-6.02-11.59-12.48-17.24-19.37-24.87-30.32-48.07-69.1-74.38-94.97-31.12-30.59-64.5-41.02-96.77-43.85-13.12-1.19-26.03-1.08-38.64-.18-17.93,1.32-35.63,4.13-53.55,6.81-25.64,3.87-51.74,7.5-78.67,3.84-45.75-6.21-95.76-38.2-129.41-112.35"/>
      <path class="st18" d="M1864.32,1915c-38.07-23.49-71.35-86.39-99.96-150.66-28.64-64.3-54.88-132.99-88.25-181.67-56.05-81.62-125.58-95.2-192.74-75.33-12.61,3.74-25.11,8.63-37.42,14.3-49.92,22.95-99.51,56.98-149.66,73.21-27.97,9.02-56.1,12.47-84.21,6.75-31.33-6.34-62.1-24.1-90.94-52.15-5.87-5.71-11.67-11.86-17.38-18.43-25.09-28.92-48.59-66.2-74.97-91.74-31.2-30.2-64.45-42-96.46-47.38-13.02-2.23-25.8-3.35-38.27-3.77-17.74-.54-35.24.24-52.99,1.04-25.4,1.17-51.32,2.39-78.11-2.97-45.5-9.11-95.23-41.71-129.61-113.13"/>
      <path class="st45" d="M1848.86,1913.38c-37.84-25.13-71.3-86.96-100.45-149.56-29.18-62.63-56.19-128.88-89.93-175.64-56.71-78.42-126.17-90.95-193.23-69.54-12.59,4.03-25.07,9.22-37.36,15.21-49.83,24.2-99.23,59.68-149.32,77.34-27.93,9.81-56.05,14.05-84.17,9.31-31.35-5.25-62.21-21.66-91.24-48.21-5.91-5.41-11.75-11.24-17.51-17.5-25.3-27.53-49.11-63.31-75.55-88.52-31.28-29.81-64.4-42.97-96.14-50.91-12.91-3.27-25.56-5.62-37.91-7.36-17.56-2.4-34.86-3.65-52.44-4.73-25.16-1.52-50.91-2.72-77.55-9.79-45.25-12.02-94.71-45.23-129.81-113.9"/>
      <path class="st32" d="M1833.39,1911.75c-37.61-26.77-71.26-87.52-100.95-148.45-29.73-60.96-57.5-124.76-91.61-169.61-57.36-75.22-126.76-86.7-193.73-63.75-12.58,4.32-25.03,9.82-37.31,16.11-49.74,25.45-98.95,62.38-148.97,81.47-27.88,10.6-55.99,15.62-84.13,11.87-31.38-4.15-62.32-19.22-91.55-44.27-5.95-5.1-11.84-10.62-17.64-16.56-25.52-26.13-49.63-60.41-76.14-85.29-31.37-29.43-64.35-43.95-95.82-54.44-12.81-4.31-25.32-7.89-37.54-10.94-17.37-4.26-34.47-7.53-51.88-10.51-24.91-4.22-50.49-7.83-76.99-16.61-45.01-14.92-94.19-48.74-130.02-114.68"/>
      <path class="st31" d="M1817.92,1910.13c-37.38-28.41-71.21-88.09-101.44-147.35-30.27-59.3-58.81-120.65-93.29-163.58-58.01-72.02-127.35-82.44-194.22-57.96-12.56,4.61-25,10.42-37.26,17.02-49.66,26.7-98.67,65.08-148.63,85.6-27.83,11.39-55.93,17.2-84.09,14.43-31.4-3.05-62.44-16.79-91.86-40.33-5.99-4.79-11.92-10-17.78-15.62-25.73-24.73-50.15-57.52-76.73-82.07-31.45-29.04-64.3-44.93-95.51-57.97-12.7-5.36-25.09-10.17-37.18-14.53-17.18-6.13-34.08-11.42-51.32-16.28-24.67-6.92-50.08-12.94-76.43-23.43-44.76-17.82-93.66-52.25-130.22-115.46"/>
      <path class="st46" d="M1802.45,1908.51c-37.15-30.05-71.17-88.66-101.93-146.24-30.81-57.63-60.12-116.53-94.97-157.54-58.66-68.82-127.94-78.19-194.71-52.17-12.55,4.9-24.96,11.01-37.21,17.93-49.57,27.94-98.39,67.78-148.29,89.73-27.78,12.18-55.88,18.78-84.04,16.99-31.43-1.95-62.55-14.35-92.16-36.39-6.03-4.49-12.01-9.38-17.91-14.69-25.95-23.34-50.67-54.62-77.32-78.84-31.54-28.65-64.25-45.9-95.19-61.49-12.6-6.4-24.85-12.44-36.81-18.11-16.99-7.99-33.69-15.3-50.76-22.05-24.43-9.61-49.66-18.05-75.86-30.25-44.51-20.73-93.14-55.77-130.42-116.24"/>
      <path class="st35" d="M1786.99,1906.88c-36.92-31.69-71.12-89.22-102.43-145.14-31.36-55.96-61.42-112.42-96.65-151.51-59.31-65.61-128.54-73.94-195.21-46.38-12.53,5.19-24.93,11.61-37.15,18.83-49.48,29.19-98.12,70.48-147.94,93.86-27.74,12.97-55.82,20.35-84,19.55-31.45-.86-62.66-11.91-92.47-32.44-6.07-4.18-12.09-8.77-18.05-13.75-26.16-21.94-51.19-51.73-77.91-75.61-31.62-28.26-64.2-46.88-94.87-65.02-12.49-7.44-24.61-14.71-36.45-21.7-16.81-9.85-33.3-19.19-50.21-27.82-24.18-12.31-49.25-23.16-75.3-37.07-44.26-23.63-92.62-59.28-130.63-117.01"/>
      <path class="st44" d="M1771.52,1905.26c-36.69-33.33-71.08-89.79-102.92-144.03-31.9-54.29-62.73-108.3-98.34-145.48-59.97-62.41-129.13-69.69-195.7-40.59-12.52,5.48-24.89,12.2-37.1,19.74-49.4,30.44-97.84,73.17-147.6,98-27.69,13.77-55.76,21.93-83.96,22.11-31.48.24-62.77-9.47-92.77-28.5-6.11-3.88-12.18-8.15-18.18-12.82-26.38-20.54-51.71-48.83-78.49-72.39-31.71-27.88-64.15-47.86-94.56-68.55-12.39-8.49-24.38-16.98-36.08-25.29-16.62-11.71-32.91-23.07-49.65-33.6-23.94-15.01-48.83-28.27-74.74-43.89-44.01-26.54-92.09-62.79-130.83-117.79"/>
      <path class="st8" d="M1756.05,1903.64c-36.47-34.97-71.03-90.36-103.42-142.92-32.44-52.63-64.04-104.19-100.02-139.45-60.62-59.21-129.72-65.44-196.19-34.8-12.5,5.77-24.86,12.8-37.05,20.65-49.31,31.69-97.56,75.87-147.26,102.13-27.64,14.56-55.71,23.51-83.92,24.67-31.5,1.34-62.88-7.04-93.08-24.56-6.15-3.57-12.26-7.53-18.32-11.88-26.59-19.14-52.23-45.94-79.08-69.16-31.79-27.49-64.1-48.83-94.24-72.08-12.28-9.53-24.14-19.26-35.72-28.87-16.43-13.57-32.52-26.96-49.09-39.37-23.7-17.7-48.42-33.38-74.18-50.71-43.77-29.44-91.57-66.31-131.03-118.57"/>
      <path class="st26" d="M1740.59,1902.01c-36.24-36.61-70.99-90.92-103.91-141.82-32.99-50.96-65.35-100.07-101.7-133.41-61.27-56.01-130.31-61.19-196.68-29.01-12.49,6.06-24.82,13.39-37,21.55-49.22,32.94-97.28,78.57-146.91,106.26-27.6,15.35-55.65,25.08-83.87,27.23-31.53,2.44-62.99-4.6-93.38-20.62-6.19-3.26-12.35-6.91-18.45-10.94-26.81-17.75-52.76-43.04-79.67-65.94-31.87-27.1-64.06-49.81-93.92-75.61-12.18-10.57-23.9-21.53-35.35-32.46-16.24-15.43-32.13-30.85-48.53-45.14-23.45-20.4-48-38.49-73.62-57.53-43.52-32.35-91.05-69.82-131.24-119.34"/>
      <path class="st15" d="M1725.12,1900.39c-36.01-38.25-70.94-91.49-104.4-140.71-33.53-49.29-66.66-95.96-103.38-127.38-61.92-52.81-130.9-56.94-197.18-23.22-12.47,6.36-24.79,13.99-36.94,22.46-49.14,34.19-97,81.27-146.57,110.39-27.55,16.14-55.59,26.66-83.83,29.79-31.55,3.53-63.1-2.16-93.69-16.68-6.23-2.96-12.43-6.29-18.59-10.01-27.03-16.35-53.28-40.15-80.26-62.71-31.96-26.71-64.01-50.79-93.61-79.13-12.08-11.61-23.67-23.8-34.99-36.04-16.06-17.29-31.74-34.73-47.98-50.92-23.21-23.1-47.59-43.6-73.06-64.35-43.27-35.25-90.52-73.34-131.44-120.12"/>
      <path class="st41" d="M1709.65,1898.77c-35.78-39.88-70.9-92.06-104.9-139.61-34.07-47.62-67.96-91.84-105.06-121.35-62.57-49.6-131.49-52.69-197.67-17.43-12.46,6.65-24.75,14.58-36.89,23.37-49.05,35.44-96.72,83.97-146.23,114.52-27.5,16.93-55.54,28.24-83.79,32.35-31.58,4.63-63.21.27-93.99-12.73-6.27-2.65-12.51-5.67-18.72-9.07-27.24-14.95-53.8-37.26-80.85-59.48-32.04-26.33-63.96-51.76-93.29-82.66-11.97-12.66-23.43-26.07-34.62-39.63-15.87-19.16-31.35-38.62-47.42-56.69-22.97-25.79-47.17-48.71-72.5-71.17-43.02-38.16-90-76.85-131.64-120.9"/>
      <path class="st25" d="M1694.19,1897.14c-35.55-41.52-70.86-92.62-105.39-138.5-34.62-45.96-69.27-87.73-106.74-115.31-63.23-46.4-132.08-48.44-198.16-11.64-12.44,6.94-24.72,15.18-36.84,24.28-48.96,36.69-96.44,86.67-145.89,118.65-27.45,17.72-55.48,29.81-83.75,34.91-31.6,5.73-63.32,2.71-94.3-8.79-6.31-2.34-12.6-5.05-18.85-8.13-27.46-13.55-54.32-34.36-81.43-56.26-32.13-25.94-63.91-52.74-92.97-86.19-11.87-13.7-23.19-28.35-34.25-43.22-15.68-21.02-30.96-42.5-46.86-62.46-22.72-28.49-46.75-53.82-71.93-77.99-42.77-41.06-89.48-80.36-131.85-121.68"/>
      <path class="st3" d="M1678.72,1895.52c-35.32-43.16-70.81-93.19-105.89-137.4-35.16-44.29-70.58-83.61-108.42-109.28-63.88-43.2-132.67-44.19-198.66-5.85-12.43,7.23-24.68,15.78-36.79,25.18-48.88,37.94-96.16,89.37-145.54,122.78-27.41,18.51-55.42,31.39-83.7,37.47-31.63,6.83-63.44,5.15-94.61-4.85-6.35-2.04-12.68-4.43-18.99-7.2-27.67-12.16-54.84-31.47-82.02-53.03-32.21-25.55-63.86-53.72-92.66-89.72-11.76-14.74-22.96-30.62-33.89-46.8-15.49-22.88-30.57-46.39-46.3-68.23-22.48-31.19-46.34-58.93-71.37-84.81-42.53-43.96-88.95-83.88-132.05-122.45"/>
      <path class="st13" d="M1663.25,1893.9c-35.09-44.8-70.77-93.76-106.38-136.29-35.7-42.62-71.89-79.5-110.11-103.25-64.53-40-133.26-39.94-199.15-.06-12.41,7.52-24.65,16.37-36.73,26.09-48.79,39.19-95.88,92.07-145.2,126.91-27.36,19.3-55.37,32.96-83.66,40.03-31.65,7.92-63.55,7.59-94.91-.91-6.39-1.73-12.77-3.81-19.12-6.26-27.89-10.76-55.36-28.57-82.61-49.81-32.3-25.16-63.81-54.69-92.34-93.25-11.66-15.79-22.72-32.89-33.52-50.39-15.31-24.74-30.18-50.28-45.75-74.01-22.24-33.88-45.92-64.04-70.81-91.63-42.28-46.87-88.43-87.39-132.25-123.23"/>
      <path class="st14" d="M1647.79,1892.27c-34.86-46.44-70.72-94.32-106.88-135.19-36.25-40.95-73.2-75.38-111.79-97.22-65.18-36.8-133.85-35.68-199.64,5.73-12.4,7.81-24.61,16.97-36.68,27-48.7,40.44-95.6,94.77-144.86,131.04-27.31,20.09-55.31,34.54-83.62,42.59-31.68,9.02-63.66,10.02-95.22,3.04-6.43-1.42-12.85-3.19-19.26-5.32-28.1-9.36-55.88-25.68-83.2-46.58-32.38-24.77-63.76-55.67-92.02-96.78-11.55-16.83-22.48-35.17-33.16-53.98-15.12-26.6-29.79-54.16-45.19-79.78-22-36.58-45.51-69.15-70.25-98.45-42.03-49.77-87.91-90.91-132.46-124.01"/>
      <path class="st0" d="M1632.32,1890.65c-34.63-48.08-70.68-94.89-107.37-134.08-36.79-39.29-74.5-71.27-113.47-91.18-65.83-33.59-134.44-31.43-200.13,11.52-12.38,8.1-24.57,17.56-36.63,27.9-48.62,41.69-95.32,97.47-144.51,135.17-27.27,20.88-55.25,36.12-83.58,45.14-31.7,10.12-63.77,12.46-95.52,6.98-6.47-1.12-12.94-2.58-19.39-4.39-28.32-7.96-56.4-22.78-83.79-43.36-32.46-24.39-63.71-56.65-91.7-100.3-11.45-17.87-22.24-37.44-32.79-57.56-14.93-28.46-29.4-58.05-44.63-85.55-21.75-39.28-45.09-74.26-69.69-105.27-41.78-52.68-87.38-94.42-132.66-124.79"/>
      <path class="st2" d="M1616.85,1889.03c-34.4-49.72-70.63-95.46-107.86-132.98-37.33-37.62-75.81-67.15-115.15-85.15-66.48-30.39-135.03-27.18-200.63,17.31-12.37,8.39-24.54,18.16-36.58,28.81-48.53,42.94-95.04,100.16-144.17,139.3-27.22,21.68-55.2,37.69-83.53,47.7-31.73,11.21-63.88,14.9-95.83,10.92-6.51-.81-13.02-1.96-19.53-3.45-28.53-6.57-56.92-19.89-84.37-40.13-32.55-24-63.66-57.62-91.39-103.83-11.34-18.91-22.01-39.71-32.43-61.15-14.74-30.32-29.02-61.93-44.07-91.32-21.51-41.97-44.68-79.37-69.13-112.09-41.53-55.58-86.86-97.93-132.86-125.56"/>
      <path class="st37" d="M1601.39,1887.4c-126.38-189.94-283.43-288.3-426.31-187.89-62.15,43.67-119.11,122.51-180.35,173.15-57.6,47.63-118.78,69.81-179.62,65.13-69.31-5.34-139.8-47.52-195.69-146.78-27.14-48.19-50.16-108.44-75.58-161.83-57.39-120.55-127.4-205.7-201.63-245.25"/>
    </g>
    <g>
      <path class="st9" d="M13.74,199.85c72.75,25.19,132.08,153.07,178.89,290.11,46.81,137.04,86.75,290.82,144.15,401.83,114.19,220.84,274.57,231.11,419.62,186.67,145.05-44.43,291.5-133.19,435.61-73.44,69.22,28.7,135.97,91.78,194.9,184.17,43.89,68.81,83.85,154.14,131.76,204.9,79.59,84.35,171.41,63.26,256.05,15.61,84.63-47.66,167.52-120.44,254.18-135.78,86.66-15.34,181.43,38.05,236.8,200.04"/>
      <path class="st17" d="M7.32,207.66c72.33,28.21,132,154.11,179.8,288.07,47.81,133.97,89.16,283.23,147.25,390.71,97.37,180.07,226.18,214.78,350.94,192.33,23.39-4.21,46.63-10.42,69.49-18.01,92.86-30.8,186.11-80.2,279.18-96.93,52.03-9.34,104-8.46,155.72,11.16,57.55,21.82,113.51,66.92,164.9,132.54,10.47,13.37,20.74,27.59,30.81,42.64,44.29,66.23,84.81,148.8,132.84,198.95,56.78,59.29,119.35,68.45,180.87,54.84,24.96-5.51,49.74-14.78,73.92-26.1,34.45-16.16,68.57-36.27,102.85-55.14,49.09-27.04,98.5-51.54,149.27-57.42,86.21-9.98,180.47,44.53,237.17,201.47"/>
      <path class="st43" d="M.91,215.48c71.91,31.23,131.92,155.16,180.71,286.03,48.81,130.89,91.58,275.64,150.36,379.58,98.57,174.17,227.27,206.94,351.85,181.65,23.36-4.75,46.56-11.52,69.4-19.68,92.7-33.1,185.59-85.18,278.55-104.55,51.94-10.8,103.9-11.37,155.64,6.43,57.6,19.8,113.72,62.42,165.46,125.27,10.54,12.8,20.9,26.44,31.05,40.91,44.68,63.66,85.77,143.46,133.93,193,56.94,58.58,119.26,70.26,180.29,61.35,24.77-3.58,49.3-10.58,73.25-19.49,34.1-12.73,67.86-29.1,101.82-44.49,48.65-22.06,97.74-42.11,148.23-44.84,85.75-4.62,179.5,51.01,237.55,202.91"/>
      <path class="st4" d="M-5.51,223.29c71.48,34.26,131.83,156.2,181.62,283.99,49.82,127.82,93.99,268.05,153.46,368.45,99.78,168.26,228.36,199.1,352.76,170.98,23.33-5.28,46.5-12.62,69.3-21.36,92.54-35.41,185.08-90.16,277.92-112.17,51.86-12.26,103.79-14.28,155.56,1.71,57.64,17.77,113.92,57.93,166.03,118,10.61,12.24,21.05,25.3,31.3,39.18,45.08,61.08,86.74,138.12,135.01,187.05,57.09,57.86,119.17,72.06,179.7,67.86,24.58-1.66,48.87-6.39,72.58-12.87,33.76-9.3,67.14-21.94,100.8-33.85,48.2-17.09,96.97-32.69,147.2-32.26,85.29.73,178.54,57.49,237.92,204.34"/>
      <path class="st33" d="M-11.93,231.1c71.06,37.28,131.75,157.25,182.54,281.95,50.82,124.74,96.4,260.46,156.56,357.33,100.98,162.36,229.45,191.26,353.67,160.3,23.31-5.82,46.43-13.72,69.2-23.03,92.38-37.71,184.56-95.13,277.28-119.79,51.77-13.72,103.69-17.19,155.48-3.01,57.69,15.75,114.13,53.43,166.59,110.73,10.68,11.67,21.21,24.16,31.54,37.45,45.48,58.5,87.7,132.78,136.1,181.1,57.25,57.15,119.08,73.86,179.12,74.37,24.38.27,48.43-2.2,71.91-6.26,33.41-5.86,66.42-14.77,99.77-23.21,47.75-12.12,96.2-23.26,146.16-19.68,84.83,6.09,177.57,63.97,238.29,205.77"/>
      <path class="st23" d="M-18.35,238.91c70.64,40.3,131.67,158.29,183.45,279.92,51.82,121.67,98.81,252.88,159.66,346.2,102.18,156.45,230.53,183.42,354.58,149.62,23.28-6.36,46.37-14.82,69.11-24.7,92.22-40.02,184.05-100.11,276.65-127.41,51.68-15.18,103.58-20.09,155.4-7.73,57.74,13.72,114.33,48.94,167.15,103.46,10.76,11.1,21.36,23.02,31.79,35.72,45.88,55.92,88.66,127.44,137.18,175.15,57.4,56.43,118.99,75.66,178.53,80.88,24.19,2.19,48,2,71.24.36,33.06-2.43,65.7-7.61,98.74-12.56,47.3-7.14,95.44-13.84,145.12-7.1,84.38,11.45,176.61,70.45,238.67,207.21"/>
      <path class="st22" d="M-24.77,246.72c70.22,43.33,131.59,159.34,184.36,277.88,52.82,118.59,101.23,245.29,162.76,335.07,103.38,150.54,231.62,175.58,355.48,138.94,23.25-6.89,46.3-15.92,69.01-26.37,92.06-42.32,183.53-105.09,276.02-135.03,51.6-16.64,103.48-23,155.32-12.45,57.78,11.7,114.54,44.44,167.72,96.19,10.83,10.54,21.51,21.88,32.03,34,46.27,53.34,89.62,122.1,138.27,169.2,57.56,55.71,118.9,77.46,177.95,87.39,24,4.11,47.56,6.19,70.57,6.98,32.72,1,64.98-.44,97.71-1.92,46.85-2.17,94.67-4.41,144.09,5.48,83.92,16.8,175.64,76.93,239.04,208.64"/>
      <path class="st10" d="M-31.19,254.53c69.79,46.35,131.51,160.38,185.27,275.84,53.82,115.51,103.64,237.7,165.86,323.95,104.59,144.64,232.71,167.74,356.39,128.26,23.23-7.43,46.24-17.01,68.91-28.05,91.9-44.63,183.02-110.07,275.39-142.65,51.51-18.09,103.37-25.91,155.25-17.17,57.83,9.68,114.74,39.95,168.28,88.92,10.9,9.97,21.67,20.73,32.28,32.27,46.67,50.77,90.58,116.76,139.35,163.25,57.72,55,118.81,79.26,177.37,93.9,23.81,6.04,47.13,10.38,69.9,13.59,32.37,4.43,64.27,6.72,96.68,8.72,46.4,2.81,93.91,5.01,143.05,18.06,83.46,22.16,174.67,83.41,239.42,210.07"/>
      <path class="st29" d="M-37.61,262.35c69.37,49.37,131.42,161.43,186.18,273.8,54.83,112.44,106.05,230.11,168.96,312.82,105.79,138.73,233.8,159.9,357.3,117.58,23.2-7.97,46.17-18.11,68.81-29.72,91.74-46.93,182.5-115.05,274.75-150.26,51.42-19.55,103.27-28.82,155.17-21.89,57.87,7.65,114.95,35.45,168.85,81.65,10.97,9.41,21.82,19.59,32.52,30.54,47.07,48.19,91.54,111.42,140.44,157.3,57.87,54.28,118.72,81.07,176.78,100.41,23.62,7.96,46.69,14.58,69.22,20.21,32.03,7.86,63.55,13.88,95.66,19.37,45.96,7.78,93.14,14.44,142.02,30.64,83,27.51,173.71,89.89,239.79,211.5"/>
      <path class="st28" d="M-44.03,270.16c68.95,52.4,131.34,162.47,187.09,271.76,55.83,109.36,108.46,222.52,172.06,301.69,106.99,132.83,234.89,152.06,358.21,106.9,23.17-8.5,46.11-19.21,68.72-31.39,91.58-49.24,181.99-120.02,274.12-157.88,51.33-21.01,103.16-31.72,155.09-26.61,57.92,5.63,115.15,30.96,169.41,74.38,11.04,8.84,21.97,18.45,32.77,28.81,47.46,45.61,92.5,106.08,141.52,151.35,58.03,53.57,118.63,82.87,176.2,106.92,23.42,9.89,46.26,18.77,68.55,26.83,31.68,11.29,62.83,21.05,94.63,30.01,45.51,12.76,92.37,23.86,140.98,43.22,82.55,32.87,172.74,96.37,240.16,212.94"/>
      <path class="st27" d="M-50.44,277.97c68.52,55.42,131.26,163.51,188,269.72,56.83,106.29,110.88,214.93,175.16,290.57,108.19,126.92,235.98,144.22,359.12,96.22,23.14-9.04,46.04-20.31,68.62-33.06,91.42-51.54,181.47-125,273.49-165.5,51.25-22.47,103.06-34.63,155.01-31.33,57.97,3.6,115.36,26.46,169.97,67.11,11.12,8.28,22.13,17.31,33.01,27.09,47.86,43.03,93.46,100.74,142.61,145.4,58.18,52.85,118.54,84.67,175.61,113.43,23.23,11.81,45.82,22.96,67.88,33.44,31.33,14.73,62.11,28.21,93.6,40.65,45.06,17.73,91.61,33.29,139.94,55.8,82.09,38.23,171.78,102.85,240.54,214.37"/>
      <path class="st38" d="M-56.86,285.78c68.1,58.44,131.18,164.56,188.91,267.68,57.83,103.21,113.29,207.34,178.27,279.44,109.4,121.02,237.06,136.38,360.03,85.54,23.12-9.58,45.98-21.41,68.52-34.74,91.26-53.84,180.96-129.98,272.86-173.12,51.16-23.93,102.96-37.54,154.93-36.05,58.01,1.58,115.56,21.97,170.54,59.84,11.19,7.71,22.28,16.16,33.26,25.36,48.26,40.46,94.42,95.4,143.69,139.45,58.34,52.14,118.45,86.47,175.03,119.94,23.04,13.74,45.39,27.15,67.21,40.06,30.99,18.16,61.39,35.38,92.57,51.3,44.61,22.7,90.84,42.72,138.91,68.37,81.63,43.58,170.81,109.33,240.91,215.8"/>
      <path class="st47" d="M-63.28,293.59C4.4,355.06,67.81,459.2,126.54,559.23c58.84,100.14,115.7,199.75,181.37,268.31,110.6,115.11,238.15,128.54,360.94,74.87,23.09-10.11,45.91-22.51,68.43-36.41,91.1-56.15,180.44-134.96,272.22-180.74,51.07-25.39,102.85-40.45,154.85-40.78,58.06-.44,115.76,17.47,171.1,52.56,11.26,7.15,22.43,15.02,33.5,23.63,48.66,37.88,95.38,90.06,144.78,133.49,58.49,51.42,118.36,88.27,174.45,126.45,22.85,15.66,44.95,31.35,66.54,46.68,30.64,21.59,60.68,42.54,91.54,61.94,44.16,27.68,90.08,52.14,137.87,80.95,81.17,48.94,169.85,115.8,241.29,217.23"/>
      <path class="st19" d="M-69.7,301.4C-2.44,365.89,61.31,468.05,121.04,565.01c59.84,97.06,118.11,192.16,184.47,257.19,111.8,109.2,239.24,120.7,361.85,64.19,23.06-10.65,45.85-23.6,68.33-38.08,90.94-58.45,179.93-139.94,271.59-188.36,50.99-26.85,102.75-43.35,154.78-45.5,58.1-2.47,115.97,12.98,171.66,45.29,11.33,6.58,22.59,13.88,33.74,21.9,49.05,35.3,96.34,84.72,145.86,127.54,58.65,50.71,118.27,90.07,173.86,132.96,22.66,17.58,44.52,35.54,65.87,53.29,30.3,25.02,59.96,49.71,90.51,72.58,43.71,32.65,89.31,61.57,136.84,93.53,80.72,54.3,168.88,122.28,241.66,218.67"/>
      <path class="st11" d="M-76.12,309.21C-9.29,376.73,54.81,476.91,115.53,570.78c60.84,93.99,120.52,184.57,187.57,246.06,113,103.3,240.33,112.86,362.76,53.51,23.03-11.18,45.78-24.7,68.23-39.75,90.78-60.76,179.41-144.91,270.96-195.97,50.9-28.31,102.64-46.26,154.7-50.22,58.15-4.49,116.17,8.48,172.23,38.02,11.4,6.02,22.74,12.74,33.99,20.18,49.45,32.72,97.3,79.38,146.95,121.59,58.81,49.99,118.18,91.88,173.28,139.47,22.46,19.51,44.09,39.73,65.2,59.91,29.95,28.45,59.24,56.87,89.49,83.23,43.26,37.63,88.54,70.99,135.8,106.11,80.26,59.65,167.92,128.76,242.04,220.1"/>
      <path class="st30" d="M-82.54,317.03C-16.13,387.56,48.31,485.77,110.02,576.55c61.84,90.91,122.94,176.98,190.67,234.93,114.21,97.39,241.42,105.02,363.66,42.83,23.01-11.72,45.72-25.8,68.14-41.43,90.62-63.06,178.9-149.89,270.33-203.59,50.81-29.77,102.54-49.17,154.62-54.94,58.2-6.52,116.38,3.99,172.79,30.75,11.48,5.45,22.9,11.6,34.23,18.45,49.85,30.15,98.27,74.04,148.03,115.64,58.96,49.27,118.09,93.68,172.7,145.97,22.27,21.43,43.65,43.93,64.53,66.52,29.6,31.89,58.52,64.04,88.46,93.87,42.82,42.6,87.78,80.42,134.76,118.69,79.8,65.01,166.95,135.24,242.41,221.53"/>
      <path class="st34" d="M-88.96,324.84C-22.97,398.4,41.81,494.62,104.52,582.32c62.84,87.83,125.35,169.39,193.77,223.81,115.41,91.49,242.51,97.18,364.57,32.15,22.98-12.26,45.65-26.9,68.04-43.1,90.46-65.37,178.38-154.87,269.7-211.21,50.72-31.22,102.43-52.08,154.54-59.66,58.24-8.54,116.58-.51,173.35,23.48,11.55,4.89,23.05,10.45,34.48,16.72,50.24,27.57,99.23,68.7,149.12,109.69,59.12,48.56,118,95.48,172.11,152.48,22.08,23.36,43.22,48.12,63.86,73.14,29.26,35.32,57.8,71.2,87.43,104.52,42.37,47.58,87.01,89.84,133.73,131.27,79.34,70.36,165.98,141.72,242.78,222.96"/>
      <path class="st39" d="M-95.37,332.65c65.56,76.58,130.68,170.83,194.38,255.45,63.85,84.76,127.76,161.8,196.87,212.68,116.61,85.58,243.59,89.34,365.48,21.47,22.95-12.79,45.59-28,67.94-44.77,90.3-67.67,177.87-159.85,269.06-218.83,50.64-32.68,102.33-54.99,154.46-64.38,58.29-10.56,116.79-5,173.92,16.21,11.62,4.32,23.2,9.31,34.72,14.99,50.64,24.99,100.19,63.36,150.2,103.74,59.27,47.84,117.91,97.28,171.53,158.99,21.89,25.28,42.78,52.31,63.19,79.76,28.91,38.75,57.09,78.36,86.4,115.16,41.92,52.55,86.24,99.27,132.69,143.85,78.89,75.72,165.02,148.2,243.16,224.4"/>
      <path class="st48" d="M-101.79,340.46c65.14,79.61,130.6,171.87,195.29,253.41,64.85,81.68,130.17,154.21,199.97,201.55,117.81,79.68,244.68,81.5,366.39,10.79,22.92-13.33,45.52-29.1,67.85-46.44,90.14-69.98,177.35-164.83,268.43-226.45,50.55-34.14,102.22-57.89,154.38-69.1,58.33-12.59,116.99-9.5,174.48,8.94,11.69,3.75,23.36,8.17,34.97,13.27,51.04,22.41,101.15,58.02,151.29,97.79,59.43,47.13,117.82,99.08,170.94,165.5,21.7,27.2,42.35,56.51,62.52,86.37,28.57,42.18,56.37,85.53,85.37,125.8,41.47,57.52,85.48,108.7,131.66,156.43,78.43,81.08,164.05,154.68,243.53,225.83"/>
      <path class="st36" d="M-108.21,348.27c64.72,82.63,130.52,172.92,196.2,251.37,65.85,78.61,132.59,146.62,203.07,190.43,119.01,73.77,245.77,73.66,367.3.11,22.9-13.87,45.45-30.19,67.75-48.12,89.98-72.28,176.84-169.8,267.8-234.07,50.46-35.6,102.12-60.8,154.31-73.82,58.38-14.61,117.2-13.99,175.05,1.67,11.76,3.19,23.51,7.03,35.21,11.54,51.44,19.83,102.11,52.68,152.37,91.84,59.58,46.41,117.73,100.88,170.36,172.01,21.51,29.13,41.91,60.7,61.84,92.99,28.22,45.61,55.65,92.69,84.35,136.45,41.02,62.5,84.71,118.12,130.62,169.01,77.97,86.43,163.09,161.16,243.91,227.26"/>
      <path class="st24" d="M-114.63,356.08c64.3,85.65,130.44,173.96,197.12,249.33,66.85,75.53,135,139.03,206.17,179.3,120.22,67.86,246.86,65.82,368.21-10.57,22.87-14.4,45.39-31.29,67.65-49.79,89.82-74.58,176.32-174.78,267.17-241.69,50.38-37.06,102.01-63.71,154.23-78.54,58.43-16.63,117.4-18.49,175.61-5.6,11.84,2.62,23.66,5.89,35.46,9.81,51.83,17.26,103.07,47.34,153.46,85.89,59.74,45.7,117.64,102.69,169.78,178.52,21.31,31.05,41.48,64.89,61.17,99.61,27.87,49.04,54.93,99.86,83.32,147.09,40.57,67.47,83.95,127.55,129.58,181.59,77.51,91.79,162.12,167.64,244.28,228.69"/>
      <path class="st20" d="M-121.05,363.89c63.87,88.68,130.35,175.01,198.03,247.29,67.86,72.46,137.41,131.44,209.28,168.17,121.42,61.96,247.95,57.98,369.12-21.24,22.84-14.94,45.32-32.39,67.55-51.46,89.66-76.89,175.8-179.76,266.53-249.3,50.29-38.52,101.91-66.62,154.15-83.26,58.47-18.66,117.61-22.98,176.17-12.87,11.91,2.06,23.82,4.74,35.7,8.08,52.23,14.68,104.03,42,154.54,79.94,59.89,44.98,117.55,104.49,169.19,185.03,21.12,32.98,41.04,69.09,60.5,106.22,27.53,52.48,54.21,107.02,82.29,157.73,40.12,72.45,83.18,136.97,128.55,194.17,77.06,97.15,161.16,174.12,244.65,230.13"/>
      <path class="st40" d="M-127.47,371.71c63.45,91.7,130.27,176.05,198.94,245.25,68.86,69.38,139.82,123.85,212.38,157.05,122.62,56.05,249.04,50.14,370.03-31.92,22.81-15.48,45.26-33.49,67.46-53.13,89.5-79.19,175.29-184.74,265.9-256.92,50.2-39.98,101.8-69.52,154.07-87.99,58.52-20.68,117.81-27.48,176.74-20.14,11.98,1.49,23.97,3.6,35.95,6.35,52.63,12.1,104.99,36.66,155.63,73.99,60.05,44.26,117.46,106.29,168.61,191.54,20.93,34.9,40.61,73.28,59.83,112.84,27.18,55.91,53.5,114.19,81.26,168.38,39.68,77.42,82.41,146.4,127.51,206.75,76.6,102.5,160.19,180.6,245.03,231.56"/>
      <path class="st21" d="M-133.89,379.52c233.09,350.32,522.74,531.72,786.26,346.53,114.62-80.55,219.68-225.96,332.63-319.35,106.24-87.84,219.07-128.75,331.29-120.11,127.83,9.84,257.84,87.64,360.93,270.72,50.05,88.88,92.51,200.01,139.39,298.48,105.85,222.34,234.96,379.38,371.88,452.32"/>
    </g>
  </g>
</svg>