<?xml version="1.0" encoding="UTF-8"?>
<svg xmlns="http://www.w3.org/2000/svg" version="1.1" xmlns:xlink="http://www.w3.org/1999/xlink" viewBox="0 0 402.89 228.26">
  <!-- Generator: Adobe Illustrator 29.1.0, SVG Export Plug-In . SVG Version: 2.1.0 Build 142)  -->
  <defs>
    <style>
      .st0 {
        fill: #e8f1f7;
      }

      .st1 {
        fill: #277bb9;
      }

      .st2 {
        fill: #83b3d7;
      }

      .st3 {
        fill: url(#linear-gradient2);
      }

      .st4 {
        fill: #3d88c0;
      }

      .st5 {
        fill: #a1c6e1;
      }

      .st6 {
        fill: #418bc2;
      }

      .st7 {
        fill: #dceaf4;
      }

      .st8 {
        fill: #458dc3;
      }

      .st9 {
        fill: #75abd3;
      }

      .st10 {
        fill: #5d9ccb;
      }

      .st11 {
        fill: #d8e7f3;
      }

      .st12 {
        fill: #85b5d8;
      }

      .st13 {
        fill: #ddeaf4;
      }

      .st14 {
        fill: #68a3cf;
      }

      .st15 {
        fill: #f6f9fc;
      }

      .st16 {
        fill: #629fcc;
      }

      .st17 {
        fill: url(#linear-gradient10);
      }

      .st18 {
        fill: #5a9aca;
      }

      .st19 {
        fill: #bdd7ea;
      }

      .st20 {
        fill: #116eb3;
      }

      .st21 {
        fill: #6aa4cf;
      }

      .st22 {
        fill: #7dafd5;
      }

      .st23 {
        fill: #a6c8e2;
      }

      .st24 {
        fill: #e4eff6;
      }

      .st25 {
        fill: #dbe9f3;
      }

      .st26 {
        fill: #b3d1e7;
      }

      .st27 {
        fill: #cce0ef;
      }

      .st28 {
        fill: #eff5fa;
      }

      .st29 {
        fill: #e6f0f7;
      }

      .st30 {
        fill: #8ab8d9;
      }

      .st31 {
        fill: #8fbadb;
      }

      .st32 {
        fill: #3f8ac1;
      }

      .st33 {
        fill: #abcce4;
      }

      .st34 {
        fill: #f8fafd;
      }

      .st35 {
        fill: #91bcdc;
      }

      .st36 {
        fill: #d1e3f0;
      }

      .st37 {
        fill: #4f93c6;
      }

      .st38 {
        fill: #7cafd5;
      }

      .st39 {
        fill: #bed7ea;
      }

      .st40 {
        fill: #3e89c1;
      }

      .st41 {
        fill: #5e9ccb;
      }

      .st42 {
        fill: url(#_Áåçûìÿííûé_ãðàäèåíò_17);
      }

      .st43 {
        fill: #5497c8;
      }

      .st44 {
        fill: #c1d9eb;
      }

      .st45 {
        fill: #bcd6e9;
      }

      .st46 {
        fill: #3a86c0;
      }

      .st47 {
        fill: #a7c9e3;
      }

      .st48 {
        fill: #2f80bc;
      }

      .st49 {
        fill: #aecde5;
      }

      .st50 {
        fill: #3584be;
      }

      .st51 {
        fill: #e1ecf5;
      }

      .st52 {
        fill: #fff;
      }

      .st53 {
        fill: #e5eff7;
      }

      .st54 {
        fill: #dae8f3;
      }

      .st55 {
        fill: url(#linear-gradient1);
      }

      .st56 {
        fill: #fafcfe;
      }

      .st57 {
        fill: #9ec4e0;
      }

      .st58 {
        fill: #d9e8f3;
      }

      .st59 {
        fill: #1a73b6;
      }

      .st60 {
        fill: url(#linear-gradient9);
      }

      .st61 {
        fill: #e2edf6;
      }

      .st62 {
        fill: #bad5e9;
      }

      .st63 {
        fill: #d7e6f2;
      }

      .st64 {
        fill: #d8e7f2;
      }

      .st65 {
        fill: #c3daec;
      }

      .st66 {
        fill: #c9deee;
      }

      .st67 {
        fill: #488fc4;
      }

      .st68 {
        fill: #6fa7d1;
      }

      .st69 {
        fill: #2177b7;
      }

      .st70 {
        fill: #6ba5cf;
      }

      .st71 {
        fill: #d2e3f0;
      }

      .st72 {
        fill: #cfe2f0;
      }

      .st73 {
        fill: #edf4f9;
      }

      .st74 {
        fill: url(#linear-gradient8);
      }

      .st75 {
        fill: #3784bf;
      }

      .st76 {
        fill: url(#linear-gradient11);
      }

      .st77 {
        fill: none;
      }

      .st78 {
        fill: #e9f2f8;
      }

      .st79 {
        fill: #dce9f4;
      }

      .st80 {
        fill: #88b6d9;
      }

      .st81 {
        fill: #1f76b7;
      }

      .st82 {
        fill: #67a2ce;
      }

      .st83 {
        fill: #c7dded;
      }

      .st84 {
        fill: #0264ae;
      }

      .st85 {
        fill: url(#linear-gradient16);
      }

      .st86 {
        fill: #c8deed;
      }

      .st87 {
        fill: #7eb0d6;
      }

      .st88 {
        fill: #95bedd;
      }

      .st89 {
        fill: #c0d8eb;
      }

      .st90 {
        fill: #619ecc;
      }

      .st91 {
        fill: #81b2d6;
      }

      .st92 {
        fill: #1972b5;
      }

      .st93 {
        fill: #eef5fa;
      }

      .st94 {
        fill: #f4f9fc;
      }

      .st95 {
        fill: #4c92c5;
      }

      .st96 {
        fill: #e7f0f7;
      }

      .st97 {
        fill: #3b87c0;
      }

      .st98 {
        fill: #e8f1f8;
      }

      .st99 {
        fill: #4e92c6;
      }

      .st100 {
        fill: #f8fbfd;
      }

      .st101 {
        fill: #0e6cb2;
      }

      .st102 {
        fill: #70a8d1;
      }

      .st103 {
        fill: #a9cae3;
      }

      .st104 {
        fill: #98c0de;
      }

      .st105 {
        isolation: isolate;
      }

      .st106 {
        fill: #287bba;
      }

      .st107 {
        fill: #f1f7fb;
      }

      .st108 {
        fill: #92bddc;
      }

      .st109 {
        fill: #b9d4e9;
      }

      .st110 {
        fill: url(#linear-gradient12);
      }

      .st111 {
        fill: #d6e6f2;
      }

      .st112 {
        fill: #1e75b6;
      }

      .st113 {
        fill: #d5e5f2;
      }

      .st114 {
        fill: #cee1ef;
      }

      .st115 {
        fill: #66a1ce;
      }

      .st116 {
        fill: #94bddc;
      }

      .st117 {
        fill: #dfebf5;
      }

      .st118 {
        fill: #0d6bb1;
      }

      .st119 {
        fill: #b1cfe6;
      }

      .st120 {
        fill: #2c7ebb;
      }

      .st121 {
        fill: #cadfee;
      }

      .st122 {
        fill: #478ec4;
      }

      .st123 {
        fill: url(#_Áåçûìÿííûé_ãðàäèåíò_171);
      }

      .st124 {
        fill: #fbfdfe;
      }

      .st125 {
        fill: #f5f9fc;
      }

      .st126 {
        fill: #89b7d9;
      }

      .st127 {
        fill: #77acd3;
      }

      .st128 {
        fill: #deebf4;
      }

      .st129 {
        fill: #fdfeff;
      }

      .st130 {
        fill: #99c1de;
      }

      .st131 {
        fill: #1771b5;
      }

      .st132 {
        fill: url(#linear-gradient7);
      }

      .st133 {
        fill: #72a8d2;
      }

      .st134 {
        fill: #8db9da;
      }

      .st135 {
        fill: #8ebadb;
      }

      .st136 {
        fill: #9fc4e0;
      }

      .st137 {
        fill: #65a1cd;
      }

      .st138 {
        fill: #bbd5e9;
      }

      .st139 {
        fill: url(#linear-gradient4);
      }

      .st140 {
        fill: #d4e5f1;
      }

      .st141 {
        fill: #90bbdb;
      }

      .st142 {
        fill: #bfd8ea;
      }

      .st143 {
        fill: #aacbe4;
      }

      .st144 {
        fill: #1c74b6;
      }

      .st145 {
        fill: #c6dced;
      }

      .st146 {
        fill: #136eb3;
      }

      .st147 {
        fill: #b7d3e8;
      }

      .st148 {
        fill: #accce4;
      }

      .st149 {
        fill: #d3e4f1;
      }

      .st150 {
        fill: #78acd4;
      }

      .st151 {
        fill: #5295c7;
      }

      .st152 {
        fill: url(#linear-gradient14);
      }

      .st153 {
        fill: #3483be;
      }

      .st154 {
        fill: url(#linear-gradient5);
      }

      .st155 {
        fill: #7fb1d6;
      }

      .st156 {
        fill: #ecf3f9;
      }

      .st157 {
        fill: #f0f6fa;
      }

      .st158 {
        fill: #63a0cd;
      }

      .st159 {
        fill: #fafcfd;
      }

      .st160 {
        fill: #f7fafc;
      }

      .st161 {
        fill: #9cc2df;
      }

      .st162 {
        fill: url(#linear-gradient3);
      }

      .st163 {
        fill: #5f9dcc;
      }

      .st164 {
        fill: #9dc3df;
      }

      .st165 {
        fill: #b4d1e7;
      }

      .st166 {
        fill: #73a9d2;
      }

      .st167 {
        fill: #448cc3;
      }

      .st168 {
        fill: #fefeff;
      }

      .st169 {
        fill: #b8d4e8;
      }

      .st170 {
        fill: #5697c9;
      }

      .st171 {
        fill: #5396c8;
      }

      .st172 {
        fill: #a0c5e0;
      }

      .st173 {
        fill: #0b6ab1;
      }

      .st174 {
        fill: #106db2;
      }

      .st175 {
        fill: #f9fbfd;
      }

      .st176 {
        fill: #f2f7fb;
      }

      .st177 {
        fill: #b5d2e7;
      }

      .st178 {
        fill: #fbfcfe;
      }

      .st179 {
        fill: #8bb8da;
      }

      .st180 {
        fill: #e0ecf5;
      }

      .st181 {
        fill: #74aad2;
      }

      .st182 {
        fill: #6ea6d0;
      }

      .st183 {
        fill: url(#linear-gradient15);
      }

      .st184 {
        fill: #d4e4f1;
      }

      .st185 {
        fill: #2b7dbb;
      }

      .st186 {
        fill: #0969b0;
      }

      .st187 {
        fill: #4990c5;
      }

      .st188 {
        fill: url(#linear-gradient17);
      }

      .st189 {
        fill: #257ab9;
      }

      .st190 {
        fill: #5899c9;
      }

      .st191 {
        fill: #ebf3f9;
      }

      .st192 {
        fill: #82b2d7;
      }

      .st193 {
        fill: #5b9bca;
      }

      .st194 {
        fill: #b0cfe6;
      }

      .st195 {
        fill: #2479b8;
      }

      .st196 {
        fill: #146fb4;
      }

      .st197 {
        fill: #7aaed4;
      }

      .st198 {
        fill: #5798c9;
      }

      .st199 {
        fill: url(#linear-gradient6);
      }

      .st200 {
        fill: #a3c7e2;
      }

      .st201 {
        fill: #428cc2;
      }

      .st202 {
        fill: #e1edf6;
      }

      .st203 {
        fill: #c5dbec;
      }

      .st204 {
        fill: #87b5d8;
      }

      .st205 {
        fill: #79add4;
      }

      .st206 {
        fill: #0365ae;
      }

      .st207 {
        fill: #a8cae3;
      }

      .st208 {
        fill: #0566af;
      }

      .st209 {
        fill: #5094c7;
      }

      .st210 {
        fill: #3282bd;
      }

      .st211 {
        fill: #c2daeb;
      }

      .st212 {
        fill: #f9fcfd;
      }

      .st213 {
        fill: #f4f8fb;
      }

      .st214 {
        fill: #9ac2df;
      }

      .st215 {
        fill: #a4c8e2;
      }

      .st216 {
        fill: #b2d0e6;
      }

      .st217 {
        fill: #eaf2f8;
      }

      .st218 {
        fill: #afcee5;
      }

      .st219 {
        fill: #adcde5;
      }

      .st220 {
        fill: #97bfde;
      }

      .st221 {
        fill: #1670b4;
      }

      .st222 {
        fill: #f3f8fb;
      }

      .st223 {
        fill: #cbdfee;
      }

      .st224 {
        fill: url(#linear-gradient13);
      }

      .st225 {
        fill: #6ca5d0;
      }

      .st226 {
        fill: #2a7cba;
      }

      .st227 {
        fill: #f6fafc;
      }

      .st228 {
        fill: #fcfdfe;
      }

      .st229 {
        fill: url(#linear-gradient);
      }

      .st230 {
        fill: #0667af;
      }

      .st231 {
        fill: #b6d2e8;
      }

      .st232 {
        fill: #3885bf;
      }

      .st233 {
        fill: #2e7fbc;
      }

      .st234 {
        clip-path: url(#clippath);
      }

      .st235 {
        fill: #feffff;
      }

      .st236 {
        fill: #d0e2f0;
      }

      .st237 {
        fill: #f1f6fa;
      }

      .st238 {
        fill: #fdfefe;
      }

      .st239 {
        fill: #3181bd;
      }

      .st240, .st241 {
        opacity: .5;
      }

      .st242 {
        fill: #dfecf5;
      }

      .st243 {
        fill: #a2c6e1;
      }

      .st244 {
        fill: #0063ad;
      }

      .st245 {
        fill: #cde0ef;
      }

      .st246 {
        fill: #4b91c5;
      }

      .st247 {
        fill: #0868b0;
      }

      .st248 {
        fill: #c4dbec;
      }

      .st249 {
        fill: #e3eef6;
      }

      .st250 {
        fill: #e4eef6;
      }

      .st251 {
        fill: #84b4d8;
      }

      .st252 {
        fill: #e6eff7;
      }

      .st253 {
        fill: #2278b8;
      }

      .st241 {
        mix-blend-mode: multiply;
      }

      .st254 {
        fill: #96bfdd;
      }
    </style>
    <clipPath id="clippath">
      <ellipse class="st77" cx="208.93" cy="204.24" rx="88" ry="12.94"/>
    </clipPath>
    <linearGradient id="linear-gradient" x1="45.8" y1="33.44" x2="105.8" y2="107.22" gradientUnits="userSpaceOnUse">
      <stop offset="0" stop-color="#b07bf6"/>
      <stop offset="1" stop-color="#5b42ff"/>
    </linearGradient>
    <linearGradient id="linear-gradient1" x1="64.22" y1="18.46" x2="124.22" y2="92.24" xlink:href="#linear-gradient"/>
    <linearGradient id="linear-gradient2" x1="31.42" y1="45.13" x2="91.42" y2="118.92" xlink:href="#linear-gradient"/>
    <linearGradient id="linear-gradient3" x1="56.88" y1="24.42" x2="116.88" y2="98.21" xlink:href="#linear-gradient"/>
    <linearGradient id="linear-gradient4" x1="48.02" y1="31.63" x2="108.02" y2="105.41" xlink:href="#linear-gradient"/>
    <linearGradient id="linear-gradient5" x1="27.26" y1="48.51" x2="87.26" y2="122.3" xlink:href="#linear-gradient"/>
    <linearGradient id="linear-gradient6" x1="71.67" y1="12.4" x2="131.67" y2="86.19" xlink:href="#linear-gradient"/>
    <linearGradient id="linear-gradient7" x1="67.99" y1="15.39" x2="127.99" y2="89.18" xlink:href="#linear-gradient"/>
    <linearGradient id="linear-gradient8" x1="288.05" y1="66.47" x2="354.43" y2="66.47" gradientUnits="userSpaceOnUse">
      <stop offset="0" stop-color="#b07bf6"/>
      <stop offset="1" stop-color="#b07bf6"/>
    </linearGradient>
    <linearGradient id="_Áåçûìÿííûé_ãðàäèåíò_17" data-name="Áåçûìÿííûé ãðàäèåíò 17" x1="-7920.61" y1="1817.4" x2="-7844.95" y2="1817.4" gradientTransform="translate(6831.38 1730.37) rotate(30.01) scale(.9 1) skewX(21.26)" gradientUnits="userSpaceOnUse">
      <stop offset="0" stop-color="#7bdaff"/>
      <stop offset="1" stop-color="#59bdef"/>
    </linearGradient>
    <linearGradient id="linear-gradient9" x1="-7827.31" y1="1857.59" x2="-7868.49" y2="1812.92" gradientTransform="translate(6831.38 1730.37) rotate(30.01) scale(.9 1) skewX(21.26)" xlink:href="#linear-gradient"/>
    <linearGradient id="linear-gradient10" x1="190.97" y1="1857.66" x2="149.78" y2="1812.99" gradientTransform="translate(780.73 -1764.59) rotate(-149.99) scale(.9 -1) skewX(-21.26)" xlink:href="#linear-gradient"/>
    <linearGradient id="linear-gradient11" x1="-7882.78" y1="1882.04" x2="-7882.78" y2="1818.26" gradientTransform="translate(6831.38 1730.37) rotate(30.01) scale(.9 1) skewX(21.26)" xlink:href="#linear-gradient"/>
    <linearGradient id="linear-gradient12" x1="-7908.05" y1="1786.64" x2="-7842.98" y2="1821.13" gradientTransform="translate(6831.38 1730.37) rotate(30.01) scale(.9 1) skewX(21.26)" xlink:href="#linear-gradient"/>
    <linearGradient id="linear-gradient13" x1="106.27" y1="107.03" x2="273.96" y2="107.03" xlink:href="#linear-gradient8"/>
    <linearGradient id="_Áåçûìÿííûé_ãðàäèåíò_171" data-name="Áåçûìÿííûé ãðàäèåíò 17" x1="-2931.94" y1="-327.27" x2="-2740.81" y2="-327.27" gradientTransform="translate(-1952.13 1730.37) rotate(149.99) scale(.9 -1) skewX(21.26)" xlink:href="#_Áåçûìÿííûé_ãðàäèåíò_17"/>
    <linearGradient id="linear-gradient14" x1="-2696.24" y1="-225.76" x2="-2800.29" y2="-338.59" gradientTransform="translate(-1952.13 1730.37) rotate(149.99) scale(.9 -1) skewX(21.26)" xlink:href="#linear-gradient"/>
    <linearGradient id="linear-gradient15" x1="-4770.67" y1="-225.78" x2="-4874.72" y2="-338.61" gradientTransform="translate(4098.52 -1764.59) rotate(-30.01) scale(.9 1) skewX(-21.26)" xlink:href="#linear-gradient"/>
    <linearGradient id="linear-gradient16" x1="-2836.37" y1="-163.98" x2="-2836.37" y2="-325.1" gradientTransform="translate(-1952.13 1730.37) rotate(149.99) scale(.9 -1) skewX(21.26)" xlink:href="#linear-gradient"/>
    <linearGradient id="linear-gradient17" x1="-2900.22" y1="-404.98" x2="-2735.84" y2="-317.85" gradientTransform="translate(-1952.13 1730.37) rotate(149.99) scale(.9 -1) skewX(21.26)" xlink:href="#linear-gradient"/>
  </defs>
  <g class="st105">
    <g id="_Ñëîé_1" data-name="Ñëîé_1">
      <g class="st241">
        <g class="st234">
          <rect class="st52" x="120.93" y="191.3" width="176" height="25.89"/>
          <path class="st52" d="M287.51,204.34c.03,5.84-35.22,10.78-78.73,11.02-43.52.25-78.82-4.29-78.85-10.13-.03-5.84,35.22-10.78,78.73-11.02,43.52-.25,78.82,4.29,78.85,10.13Z"/>
          <ellipse class="st52" cx="208.45" cy="204.79" rx="78.48" ry="10.54" transform="translate(-1.15 1.18) rotate(-.32)"/>
          <ellipse class="st52" cx="208.18" cy="204.79" rx="78.17" ry="10.49" transform="translate(-1.15 1.18) rotate(-.32)"/>
          <path class="st52" d="M285.78,204.35c.03,5.77-34.8,10.65-77.8,10.89s-77.89-4.24-77.92-10.01,34.8-10.65,77.8-10.89,77.89,4.24,77.92,10.01Z"/>
          <path class="st52" d="M285.2,204.35c.03,5.75-34.66,10.61-77.5,10.85-42.83.24-77.58-4.22-77.61-9.97-.03-5.75,34.66-10.61,77.5-10.85,42.83-.24,77.58,4.22,77.61,9.97Z"/>
          <ellipse class="st235" cx="207.37" cy="204.79" rx="77.25" ry="10.37" transform="translate(-1.15 1.17) rotate(-.32)"/>
          <path class="st235" d="M284.04,204.36c.03,5.7-34.39,10.52-76.88,10.76-42.49.24-76.96-4.19-77-9.89-.03-5.7,34.39-10.52,76.88-10.76,42.49-.24,76.96,4.19,77,9.9Z"/>
          <path class="st168" d="M283.46,204.36c.03,5.68-34.25,10.48-76.57,10.72-42.32.24-76.65-4.17-76.69-9.86-.03-5.68,34.25-10.48,76.57-10.72s76.65,4.17,76.69,9.86Z"/>
          <path class="st168" d="M282.88,204.37c.03,5.66-34.11,10.44-76.26,10.68-42.15.24-76.34-4.16-76.38-9.82-.03-5.66,34.11-10.44,76.26-10.68,42.15-.24,76.34,4.16,76.38,9.82Z"/>
          <path class="st168" d="M282.3,204.37c.03,5.64-33.97,10.4-75.95,10.63-41.98.24-76.04-4.14-76.07-9.78s33.97-10.4,75.95-10.63c41.98-.24,76.04,4.14,76.07,9.78Z"/>
          <path class="st129" d="M281.72,204.37c.03,5.61-33.84,10.35-75.64,10.59-41.81.24-75.73-4.12-75.76-9.74s33.84-10.35,75.64-10.59c41.81-.24,75.73,4.12,75.76,9.74Z"/>
          <ellipse class="st238" cx="205.75" cy="204.8" rx="75.39" ry="10.12" transform="translate(-1.15 1.16) rotate(-.32)"/>
          <ellipse class="st238" cx="205.48" cy="204.8" rx="75.08" ry="10.08" transform="translate(-1.15 1.16) rotate(-.32)"/>
          <path class="st238" d="M279.99,204.38c.03,5.54-33.42,10.23-74.72,10.46-41.3.23-74.8-4.07-74.83-9.62-.03-5.54,33.42-10.23,74.72-10.46,41.3-.23,74.8,4.07,74.83,9.62Z"/>
          <path class="st228" d="M279.41,204.38c.03,5.52-33.28,10.19-74.41,10.42-41.13.23-74.49-4.06-74.52-9.58-.03-5.52,33.28-10.19,74.41-10.42,41.13-.23,74.49,4.06,74.52,9.58Z"/>
          <path class="st228" d="M278.83,204.39c.03,5.5-33.14,10.14-74.1,10.37-40.96.23-74.18-4.04-74.21-9.54-.03-5.5,33.14-10.14,74.1-10.37,40.96-.23,74.18,4.04,74.21,9.54Z"/>
          <ellipse class="st228" cx="204.4" cy="204.81" rx="73.85" ry="9.91" transform="translate(-1.15 1.16) rotate(-.32)"/>
          <path class="st124" d="M277.67,204.39c.03,5.45-32.87,10.06-73.48,10.29-40.61.23-73.56-4.01-73.59-9.46-.03-5.45,32.87-10.06,73.48-10.29,40.61-.23,73.56,4.01,73.59,9.46Z"/>
          <path class="st124" d="M277.09,204.4c.03,5.43-32.73,10.02-73.17,10.24s-73.25-3.99-73.28-9.42,32.73-10.02,73.17-10.24c40.44-.23,73.25,3.99,73.28,9.42Z"/>
          <ellipse class="st178" cx="203.6" cy="204.81" rx="72.92" ry="9.79" transform="translate(-1.15 1.15) rotate(-.32)"/>
          <path class="st56" d="M275.94,204.4c.03,5.38-32.45,9.93-72.56,10.16-40.1.23-72.64-3.95-72.67-9.34s32.45-9.93,72.56-10.16c40.1-.23,72.64,3.95,72.67,9.34Z"/>
          <path class="st159" d="M275.36,204.41c.03,5.36-32.32,9.89-72.25,10.11-39.93.23-72.33-3.94-72.36-9.3-.03-5.36,32.32-9.89,72.25-10.11,39.93-.23,72.33,3.94,72.36,9.3Z"/>
          <path class="st159" d="M274.78,204.41c.03,5.34-32.18,9.85-71.94,10.07s-72.02-3.92-72.05-9.26c-.03-5.34,32.18-9.85,71.94-10.07s72.02,3.92,72.05,9.26Z"/>
          <path class="st212" d="M274.2,204.41c.03,5.32-32.04,9.8-71.63,10.03-39.59.22-71.71-3.9-71.74-9.22-.03-5.32,32.04-9.8,71.63-10.03,39.59-.22,71.71,3.9,71.74,9.22Z"/>
          <path class="st175" d="M273.62,204.42c.03,5.29-31.9,9.76-71.32,9.98-39.42.22-71.4-3.89-71.43-9.18-.03-5.29,31.9-9.76,71.32-9.98,39.42-.22,71.4,3.89,71.43,9.18Z"/>
          <ellipse class="st100" cx="201.98" cy="204.82" rx="71.07" ry="9.54" transform="translate(-1.15 1.14) rotate(-.32)"/>
          <ellipse class="st100" cx="201.71" cy="204.82" rx="70.76" ry="9.5" transform="translate(-1.15 1.14) rotate(-.32)"/>
          <path class="st34" d="M271.89,204.43c.03,5.22-31.49,9.64-70.39,9.86-38.91.22-70.47-3.84-70.5-9.06s31.49-9.64,70.39-9.86c38.91-.22,70.47,3.84,70.5,9.06Z"/>
          <path class="st160" d="M271.31,204.43c.03,5.2-31.35,9.59-70.09,9.81-38.74.22-70.16-3.82-70.19-9.02-.03-5.2,31.35-9.59,70.09-9.81,38.74-.22,70.16,3.82,70.19,9.02Z"/>
          <ellipse class="st160" cx="200.9" cy="204.83" rx="69.83" ry="9.37" transform="translate(-1.15 1.14) rotate(-.32)"/>
          <path class="st227" d="M270.15,204.43c.03,5.15-31.07,9.51-69.47,9.73-38.4.22-69.54-3.79-69.57-8.94-.03-5.15,31.07-9.51,69.47-9.73,38.4-.22,69.54,3.79,69.57,8.94Z"/>
          <path class="st15" d="M269.57,204.44c.03,5.13-30.93,9.47-69.16,9.68-38.22.22-69.24-3.77-69.26-8.9-.03-5.13,30.94-9.47,69.16-9.68s69.24,3.77,69.26,8.9Z"/>
          <path class="st125" d="M268.99,204.44c.03,5.11-30.8,9.42-68.85,9.64-38.05.21-68.93-3.75-68.96-8.86-.03-5.11,30.8-9.42,68.85-9.64,38.05-.21,68.93,3.75,68.96,8.86Z"/>
          <path class="st125" d="M268.41,204.44c.03,5.09-30.66,9.38-68.54,9.6s-68.62-3.74-68.65-8.82c-.03-5.09,30.66-9.38,68.54-9.6s68.62,3.74,68.65,8.82Z"/>
          <path class="st94" d="M267.83,204.45c.03,5.06-30.52,9.34-68.23,9.55-37.71.21-68.31-3.72-68.34-8.78-.03-5.06,30.52-9.34,68.23-9.55,37.71-.21,68.31,3.72,68.34,8.78Z"/>
          <ellipse class="st213" cx="199.28" cy="204.83" rx="67.98" ry="9.13" transform="translate(-1.15 1.13) rotate(-.32)"/>
          <ellipse class="st222" cx="199.01" cy="204.84" rx="67.67" ry="9.08" transform="translate(-1.15 1.13) rotate(-.32)"/>
          <path class="st222" d="M266.1,204.46c.03,4.99-30.11,9.21-67.31,9.42-37.2.21-67.38-3.67-67.41-8.66-.03-4.99,30.11-9.21,67.31-9.42,37.2-.21,67.38,3.67,67.41,8.66Z"/>
          <path class="st176" d="M265.52,204.46c.03,4.97-29.97,9.17-67,9.38-37.03.21-67.07-3.65-67.1-8.62-.03-4.97,29.97-9.17,67-9.38,37.03-.21,67.07,3.65,67.1,8.62Z"/>
          <path class="st176" d="M264.94,204.46c.03,4.95-29.83,9.13-66.69,9.34s-66.76-3.64-66.79-8.58c-.03-4.95,29.83-9.13,66.69-9.34,36.86-.21,66.76,3.64,66.79,8.58Z"/>
          <path class="st107" d="M264.36,204.47c.03,4.93-29.69,9.09-66.38,9.29-36.69.21-66.45-3.62-66.48-8.54s29.69-9.09,66.38-9.29c36.69-.21,66.45,3.62,66.48,8.54Z"/>
          <path class="st237" d="M263.78,204.47c.03,4.9-29.55,9.04-66.07,9.25-36.52.21-66.14-3.6-66.17-8.5-.03-4.9,29.55-9.04,66.07-9.25s66.14,3.6,66.17,8.5Z"/>
          <path class="st157" d="M263.2,204.47c.03,4.88-29.42,9-65.76,9.21-36.35.2-65.84-3.58-65.86-8.46-.03-4.88,29.42-9,65.76-9.21,36.35-.21,65.84,3.58,65.86,8.46Z"/>
          <path class="st157" d="M262.62,204.48c.03,4.86-29.28,8.96-65.45,9.16-36.18.2-65.53-3.57-65.55-8.42-.03-4.86,29.28-8.96,65.45-9.16,36.18-.2,65.53,3.57,65.55,8.42Z"/>
          <path class="st28" d="M262.05,204.48c.03,4.83-29.14,8.92-65.15,9.12-36.01.2-65.22-3.55-65.24-8.38-.03-4.83,29.14-8.92,65.15-9.12s65.22,3.55,65.24,8.38Z"/>
          <path class="st93" d="M261.47,204.48c.03,4.81-29,8.88-64.84,9.08-35.84.2-64.91-3.53-64.94-8.35-.03-4.81,29-8.88,64.84-9.08,35.84-.2,64.91,3.53,64.94,8.35Z"/>
          <path class="st93" d="M260.89,204.48c.03,4.79-28.86,8.83-64.53,9.03-35.67.2-64.6-3.52-64.63-8.31-.03-4.79,28.86-8.83,64.53-9.03s64.6,3.52,64.63,8.31Z"/>
          <path class="st73" d="M260.31,204.49c.03,4.77-28.73,8.79-64.22,8.99-35.49.2-64.29-3.5-64.32-8.27-.03-4.77,28.73-8.79,64.22-8.99,35.49-.2,64.29,3.5,64.32,8.27Z"/>
          <path class="st73" d="M259.73,204.49c.03,4.74-28.59,8.75-63.91,8.95-35.32.2-63.98-3.48-64.01-8.23-.03-4.74,28.59-8.75,63.91-8.95,35.32-.2,63.98,3.48,64.01,8.23Z"/>
          <ellipse class="st156" cx="195.5" cy="204.85" rx="63.65" ry="8.55" transform="translate(-1.15 1.11) rotate(-.32)"/>
          <ellipse class="st191" cx="195.23" cy="204.85" rx="63.34" ry="8.5" transform="translate(-1.15 1.1) rotate(-.32)"/>
          <path class="st191" d="M257.99,204.5c.03,4.67-28.17,8.62-62.98,8.82-34.81.2-63.05-3.43-63.08-8.11s28.17-8.62,62.98-8.82c34.81-.2,63.05,3.43,63.08,8.11Z"/>
          <path class="st217" d="M257.42,204.5c.03,4.65-28.03,8.58-62.68,8.77s-62.74-3.42-62.77-8.07c-.03-4.65,28.03-8.58,62.68-8.77,34.64-.2,62.74,3.42,62.77,8.07Z"/>
          <ellipse class="st217" cx="194.42" cy="204.86" rx="62.42" ry="8.38" transform="translate(-1.15 1.1) rotate(-.32)"/>
          <path class="st78" d="M256.26,204.51c.03,4.6-27.76,8.49-62.06,8.69-34.3.19-62.13-3.38-62.15-7.99-.03-4.6,27.76-8.49,62.06-8.69s62.13,3.38,62.15,7.99Z"/>
          <path class="st98" d="M255.68,204.51c.03,4.58-27.62,8.45-61.75,8.65-34.13.19-61.82-3.37-61.84-7.95-.03-4.58,27.62-8.45,61.75-8.64,34.13-.19,61.82,3.37,61.84,7.95Z"/>
          <path class="st0" d="M255.1,204.52c.03,4.56-27.48,8.41-61.44,8.6-33.96.19-61.51-3.35-61.53-7.91-.03-4.56,27.48-8.41,61.44-8.6,33.96-.19,61.51,3.35,61.53,7.91Z"/>
          <path class="st96" d="M254.52,204.52c.03,4.54-27.34,8.37-61.13,8.56-33.79.19-61.2-3.33-61.23-7.87s27.34-8.37,61.13-8.56,61.2,3.33,61.23,7.87Z"/>
          <path class="st29" d="M253.94,204.52c.03,4.51-27.21,8.33-60.82,8.52-33.62.19-60.89-3.32-60.92-7.83-.03-4.51,27.21-8.33,60.82-8.52,33.62-.19,60.89,3.32,60.92,7.83Z"/>
          <ellipse class="st252" cx="192.8" cy="204.87" rx="60.56" ry="8.13" transform="translate(-1.15 1.09) rotate(-.32)"/>
          <ellipse class="st53" cx="192.53" cy="204.87" rx="60.25" ry="8.09" transform="translate(-1.15 1.09) rotate(-.32)"/>
          <path class="st24" d="M252.21,204.53c.03,4.44-26.79,8.2-59.9,8.39-33.11.19-59.96-3.26-59.99-7.71-.03-4.44,26.79-8.2,59.9-8.39,33.11-.19,59.96,3.26,59.99,7.71Z"/>
          <path class="st250" d="M251.63,204.53c.02,4.42-26.65,8.16-59.59,8.34-32.93.19-59.65-3.25-59.68-7.67-.02-4.42,26.65-8.16,59.59-8.34,32.93-.19,59.65,3.25,59.68,7.67Z"/>
          <path class="st249" d="M251.05,204.54c.02,4.4-26.52,8.11-59.28,8.3-32.76.18-59.34-3.23-59.37-7.63-.02-4.4,26.52-8.11,59.28-8.3,32.76-.18,59.34,3.23,59.37,7.63Z"/>
          <path class="st61" d="M250.47,204.54c.02,4.38-26.38,8.07-58.97,8.26-32.59.18-59.04-3.21-59.06-7.59-.02-4.38,26.38-8.07,58.97-8.26,32.59-.18,59.04,3.21,59.06,7.59Z"/>
          <path class="st202" d="M249.89,204.54c.02,4.35-26.24,8.03-58.66,8.21s-58.73-3.2-58.75-7.55c-.02-4.35,26.24-8.03,58.66-8.21s58.73,3.2,58.75,7.55Z"/>
          <path class="st51" d="M249.31,204.55c.02,4.33-26.1,7.99-58.35,8.17-32.25.18-58.42-3.18-58.44-7.51-.02-4.33,26.1-7.99,58.35-8.17,32.25-.18,58.42,3.18,58.44,7.51Z"/>
          <path class="st180" d="M248.73,204.55c.02,4.31-25.96,7.95-58.04,8.13-32.08.18-58.11-3.16-58.13-7.47s25.96-7.95,58.04-8.13c32.08-.18,58.11,3.16,58.13,7.47Z"/>
          <path class="st242" d="M248.16,204.55c.02,4.28-25.83,7.9-57.74,8.08-31.91.18-57.8-3.15-57.82-7.43s25.83-7.9,57.74-8.08c31.91-.18,57.8,3.15,57.82,7.43Z"/>
          <path class="st117" d="M247.58,204.56c.02,4.26-25.69,7.86-57.43,8.04-31.74.18-57.49-3.13-57.51-7.39-.02-4.26,25.69-7.86,57.43-8.04,31.74-.18,57.49,3.13,57.51,7.39Z"/>
          <ellipse class="st128" cx="189.84" cy="204.88" rx="57.16" ry="7.67" transform="translate(-1.15 1.07) rotate(-.32)"/>
          <path class="st13" d="M246.42,204.56c.02,4.22-25.41,7.78-56.81,7.95-31.4.18-56.87-3.1-56.9-7.31-.02-4.22,25.41-7.78,56.81-7.95,31.4-.18,56.87,3.1,56.9,7.31Z"/>
          <path class="st7" d="M245.84,204.57c.02,4.19-25.27,7.73-56.5,7.91-31.23.18-56.56-3.08-56.59-7.27-.02-4.19,25.27-7.73,56.5-7.91,31.23-.18,56.56,3.08,56.59,7.27Z"/>
          <ellipse class="st79" cx="189.03" cy="204.89" rx="56.24" ry="7.55" transform="translate(-1.15 1.07) rotate(-.32)"/>
          <ellipse class="st25" cx="188.76" cy="204.89" rx="55.93" ry="7.51" transform="translate(-1.15 1.07) rotate(-.32)"/>
          <path class="st54" d="M244.1,204.57c.02,4.12-24.86,7.61-55.57,7.78-30.72.17-55.64-3.03-55.66-7.15-.02-4.12,24.86-7.61,55.57-7.78s55.64,3.03,55.66,7.15Z"/>
          <path class="st58" d="M243.52,204.58c.02,4.1-24.72,7.56-55.27,7.74s-55.33-3.01-55.35-7.11c-.02-4.1,24.72-7.56,55.27-7.74s55.33,3.01,55.35,7.11Z"/>
          <ellipse class="st11" cx="187.95" cy="204.89" rx="55" ry="7.38" transform="translate(-1.15 1.06) rotate(-.32)"/>
          <path class="st64" d="M242.37,204.58c.02,4.06-24.44,7.48-54.65,7.65-30.2.17-54.71-2.98-54.73-7.03-.02-4.06,24.44-7.48,54.65-7.65,30.2-.17,54.71,2.98,54.73,7.03Z"/>
          <path class="st63" d="M241.79,204.59c.02,4.03-24.31,7.44-54.34,7.61-30.03.17-54.4-2.96-54.42-6.99-.02-4.03,24.31-7.44,54.34-7.61,30.03-.17,54.4,2.96,54.42,6.99Z"/>
          <path class="st111" d="M241.21,204.59c.02,4.01-24.17,7.4-54.03,7.56-29.86.17-54.09-2.94-54.11-6.95-.02-4.01,24.17-7.4,54.03-7.56,29.86-.17,54.09,2.94,54.11,6.95Z"/>
          <path class="st113" d="M240.63,204.59c.02,3.99-24.03,7.35-53.72,7.52-29.69.17-53.78-2.93-53.8-6.91s24.03-7.35,53.72-7.52c29.69-.17,53.78,2.93,53.8,6.91Z"/>
          <path class="st140" d="M240.05,204.6c.02,3.96-23.89,7.31-53.41,7.48-29.52.17-53.47-2.91-53.49-6.87-.02-3.96,23.89-7.31,53.41-7.48,29.52-.17,53.47,2.91,53.49,6.87Z"/>
          <path class="st184" d="M239.47,204.6c.02,3.94-23.75,7.27-53.1,7.43-29.35.17-53.16-2.89-53.19-6.84-.02-3.94,23.75-7.27,53.1-7.43,29.35-.17,53.16,2.89,53.19,6.84Z"/>
          <ellipse class="st149" cx="186.06" cy="204.9" rx="52.84" ry="7.09" transform="translate(-1.15 1.05) rotate(-.32)"/>
          <path class="st71" d="M238.32,204.61c.02,3.89-23.48,7.18-52.49,7.35-29.01.16-52.55-2.86-52.57-6.76-.02-3.89,23.48-7.18,52.49-7.35,29.01-.16,52.55,2.86,52.57,6.76Z"/>
          <path class="st36" d="M237.74,204.61c.02,3.87-23.34,7.14-52.18,7.31-28.84.16-52.24-2.84-52.26-6.72-.02-3.87,23.34-7.14,52.18-7.31,28.84-.16,52.24,2.84,52.26,6.72Z"/>
          <path class="st236" d="M237.16,204.61c.02,3.85-23.2,7.1-51.87,7.26-28.67.16-51.93-2.83-51.95-6.68-.02-3.85,23.2-7.1,51.87-7.26,28.67-.16,51.93,2.83,51.95,6.68Z"/>
          <path class="st72" d="M236.58,204.62c.02,3.83-23.06,7.06-51.56,7.22-28.5.16-51.62-2.81-51.64-6.64-.02-3.83,23.06-7.06,51.56-7.22,28.5-.16,51.62,2.81,51.64,6.64Z"/>
          <path class="st114" d="M236,204.62c.02,3.8-22.93,7.02-51.25,7.18s-51.31-2.79-51.33-6.6c-.02-3.8,22.93-7.02,51.25-7.18,28.33-.16,51.31,2.79,51.33,6.6Z"/>
          <path class="st114" d="M235.42,204.62c.02,3.78-22.79,6.97-50.94,7.13-28.16.16-51-2.78-51.02-6.56s22.79-6.97,50.94-7.13c28.16-.16,51,2.78,51.02,6.56Z"/>
          <path class="st245" d="M234.84,204.62c.02,3.76-22.65,6.93-50.63,7.09-27.99.16-50.69-2.76-50.71-6.52s22.65-6.93,50.63-7.09c27.99-.16,50.69,2.76,50.71,6.52Z"/>
          <path class="st27" d="M234.26,204.63c.02,3.73-22.51,6.89-50.33,7.05-27.82.16-50.38-2.74-50.4-6.48s22.51-6.89,50.33-7.05c27.82-.16,50.38,2.74,50.4,6.48Z"/>
          <path class="st223" d="M233.69,204.63c.02,3.71-22.37,6.85-50.02,7-27.64.16-50.07-2.73-50.09-6.44-.02-3.71,22.37-6.85,50.02-7,27.64-.16,50.07,2.73,50.09,6.44Z"/>
          <ellipse class="st121" cx="183.36" cy="204.91" rx="49.75" ry="6.68" transform="translate(-1.15 1.04) rotate(-.32)"/>
          <path class="st66" d="M232.53,204.64c.02,3.67-22.1,6.76-49.4,6.92-27.3.15-49.45-2.69-49.47-6.36-.02-3.67,22.1-6.76,49.4-6.92,27.3-.15,49.45,2.69,49.47,6.36Z"/>
          <path class="st86" d="M231.95,204.64c.02,3.64-21.96,6.72-49.09,6.87-27.13.15-49.15-2.68-49.17-6.32-.02-3.64,21.96-6.72,49.09-6.87,27.13-.15,49.15,2.68,49.17,6.32Z"/>
          <ellipse class="st83" cx="182.55" cy="204.92" rx="48.82" ry="6.55" transform="translate(-1.15 1.03) rotate(-.32)"/>
          <ellipse class="st145" cx="182.28" cy="204.92" rx="48.51" ry="6.51" transform="translate(-1.15 1.03) rotate(-.32)"/>
          <path class="st145" d="M230.21,204.65c.02,3.57-21.54,6.59-48.16,6.74-26.62.15-48.22-2.63-48.24-6.2s21.54-6.59,48.16-6.74,48.22,2.63,48.24,6.2Z"/>
          <path class="st203" d="M229.63,204.65c.02,3.55-21.41,6.55-47.86,6.7-26.45.15-47.91-2.61-47.93-6.16s21.41-6.55,47.86-6.7c26.45-.15,47.91,2.61,47.93,6.16Z"/>
          <ellipse class="st248" cx="181.47" cy="204.92" rx="47.58" ry="6.39" transform="translate(-1.15 1.03) rotate(-.32)"/>
          <path class="st65" d="M228.48,204.66c.02,3.51-21.13,6.47-47.24,6.61-26.11.15-47.29-2.57-47.31-6.08-.02-3.51,21.13-6.47,47.24-6.61,26.11-.15,47.29,2.57,47.31,6.08Z"/>
          <path class="st211" d="M227.9,204.66c.02,3.48-20.99,6.42-46.93,6.57-25.94.15-46.98-2.56-47-6.04-.02-3.48,20.99-6.42,46.93-6.57,25.94-.15,46.98,2.56,47,6.04Z"/>
          <path class="st44" d="M227.32,204.67c.02,3.46-20.85,6.38-46.62,6.53-25.77.15-46.67-2.54-46.69-6-.02-3.46,20.85-6.38,46.62-6.53,25.77-.15,46.67,2.54,46.69,6Z"/>
          <path class="st89" d="M226.74,204.67c.02,3.44-20.72,6.34-46.31,6.48-25.6.14-46.36-2.52-46.38-5.96-.02-3.44,20.72-6.34,46.31-6.48,25.6-.14,46.36,2.52,46.38,5.96Z"/>
          <path class="st142" d="M226.16,204.67c.02,3.41-20.58,6.3-46,6.44-25.43.14-46.05-2.51-46.07-5.92-.02-3.41,20.58-6.3,46-6.44,25.43-.14,46.05,2.51,46.07,5.92Z"/>
          <ellipse class="st39" cx="179.85" cy="204.93" rx="45.73" ry="6.14" transform="translate(-1.15 1.02) rotate(-.32)"/>
          <path class="st19" d="M225,204.68c.02,3.37-20.3,6.21-45.39,6.35-25.09.14-45.44-2.47-45.45-5.84s20.3-6.21,45.39-6.35c25.09-.14,45.44,2.47,45.45,5.84Z"/>
          <path class="st45" d="M224.43,204.68c.02,3.34-20.16,6.17-45.08,6.31-24.91.14-45.13-2.46-45.15-5.8-.02-3.34,20.16-6.17,45.08-6.31,24.91-.14,45.13,2.46,45.15,5.8Z"/>
          <path class="st138" d="M223.85,204.68c.02,3.32-20.02,6.13-44.77,6.27-24.74.14-44.82-2.44-44.84-5.76-.02-3.32,20.02-6.13,44.77-6.27s44.82,2.44,44.84,5.76Z"/>
          <path class="st62" d="M223.27,204.69c.02,3.3-19.89,6.09-44.46,6.22-24.57.14-44.51-2.42-44.53-5.72-.02-3.3,19.89-6.09,44.46-6.22,24.57-.14,44.51,2.42,44.53,5.72Z"/>
          <path class="st109" d="M222.69,204.69c.02,3.28-19.75,6.04-44.15,6.18-24.4.14-44.2-2.41-44.22-5.68-.02-3.28,19.75-6.04,44.15-6.18,24.4-.14,44.2,2.41,44.22,5.68Z"/>
          <path class="st169" d="M222.11,204.69c.02,3.25-19.61,6-43.84,6.14-24.23.14-43.89-2.39-43.91-5.64-.02-3.25,19.61-6,43.84-6.14,24.23-.14,43.89,2.39,43.91,5.64Z"/>
          <path class="st147" d="M221.53,204.7c.02,3.23-19.47,5.96-43.53,6.09-24.06.14-43.58-2.37-43.6-5.6-.02-3.23,19.47-5.96,43.53-6.09,24.06-.14,43.58,2.37,43.6,5.6Z"/>
          <path class="st231" d="M220.95,204.7c.02,3.21-19.33,5.92-43.23,6.05-23.89.13-43.27-2.36-43.29-5.56s19.33-5.92,43.22-6.05c23.89-.13,43.27,2.36,43.29,5.56Z"/>
          <path class="st177" d="M220.37,204.7c.02,3.18-19.2,5.87-42.92,6.01-23.72.13-42.96-2.34-42.98-5.52-.02-3.18,19.2-5.87,42.92-6.01,23.72-.13,42.96,2.34,42.98,5.52Z"/>
          <path class="st165" d="M219.8,204.71c.02,3.16-19.06,5.83-42.61,5.97-23.55.13-42.65-2.32-42.67-5.48-.02-3.16,19.06-5.83,42.61-5.97,23.55-.13,42.65,2.32,42.67,5.48Z"/>
          <ellipse class="st26" cx="176.89" cy="204.95" rx="42.33" ry="5.68" transform="translate(-1.15 1) rotate(-.32)"/>
          <path class="st216" d="M218.64,204.71c.02,3.12-18.78,5.75-41.99,5.88-23.21.13-42.04-2.29-42.05-5.4-.02-3.12,18.78-5.75,41.99-5.88,23.21-.13,42.04,2.29,42.05,5.4Z"/>
          <path class="st119" d="M218.06,204.72c.02,3.09-18.64,5.71-41.68,5.84-23.04.13-41.73-2.27-41.74-5.36-.02-3.09,18.64-5.71,41.68-5.84,23.04-.13,41.73,2.27,41.74,5.36Z"/>
          <path class="st194" d="M217.48,204.72c.02,3.07-18.51,5.66-41.37,5.79-22.87.13-41.42-2.26-41.44-5.33s18.51-5.66,41.37-5.79c22.87-.13,41.42,2.26,41.44,5.32Z"/>
          <path class="st218" d="M216.9,204.72c.02,3.05-18.37,5.62-41.06,5.75-22.7.13-41.11-2.24-41.13-5.29s18.37-5.62,41.06-5.75c22.7-.13,41.11,2.24,41.13,5.29Z"/>
          <path class="st49" d="M216.32,204.72c.02,3.02-18.23,5.58-40.75,5.71-22.53.13-40.8-2.22-40.82-5.25-.02-3.02,18.23-5.58,40.75-5.71s40.8,2.22,40.82,5.25Z"/>
          <path class="st219" d="M215.74,204.73c.02,3-18.09,5.54-40.45,5.66-22.35.13-40.49-2.2-40.51-5.21-.02-3,18.09-5.54,40.45-5.66,22.35-.13,40.49,2.2,40.51,5.21Z"/>
          <ellipse class="st148" cx="175" cy="204.96" rx="40.17" ry="5.39" transform="translate(-1.15 .99) rotate(-.32)"/>
          <path class="st33" d="M214.59,204.73c.02,2.96-17.82,5.45-39.83,5.58s-39.87-2.17-39.89-5.13c-.02-2.96,17.82-5.45,39.83-5.58,22.01-.12,39.87,2.17,39.89,5.13Z"/>
          <path class="st143" d="M214.01,204.74c.02,2.93-17.68,5.41-39.52,5.53s-39.56-2.15-39.58-5.09c-.02-2.93,17.68-5.41,39.52-5.53s39.56,2.15,39.58,5.09Z"/>
          <path class="st103" d="M213.43,204.74c.02,2.91-17.54,5.37-39.21,5.49-21.67.12-39.25-2.14-39.27-5.05-.02-2.91,17.54-5.37,39.21-5.49,21.67-.12,39.25,2.14,39.27,5.05Z"/>
          <path class="st207" d="M212.85,204.74c.02,2.89-17.4,5.33-38.9,5.45-21.5.12-38.95-2.12-38.96-5.01s17.4-5.33,38.9-5.45c21.5-.12,38.95,2.12,38.96,5.01Z"/>
          <path class="st47" d="M212.27,204.75c.02,2.86-17.26,5.28-38.59,5.4-21.33.12-38.64-2.1-38.65-4.97-.02-2.86,17.26-5.28,38.59-5.4,21.33-.12,38.64,2.1,38.65,4.97Z"/>
          <path class="st23" d="M211.69,204.75c.02,2.84-17.12,5.24-38.28,5.36-21.16.12-38.33-2.09-38.34-4.93s17.12-5.24,38.28-5.36c21.16-.12,38.33,2.09,38.34,4.93Z"/>
          <path class="st215" d="M211.11,204.75c.02,2.82-16.99,5.2-37.98,5.32-20.99.12-38.02-2.07-38.03-4.89s16.99-5.2,37.98-5.32c20.99-.12,38.02,2.07,38.03,4.89Z"/>
          <path class="st200" d="M210.53,204.76c.02,2.8-16.85,5.16-37.67,5.27-20.82.12-37.71-2.05-37.72-4.85-.02-2.79,16.85-5.16,37.67-5.27,20.82-.12,37.71,2.05,37.72,4.85Z"/>
          <path class="st243" d="M209.96,204.76c.02,2.77-16.71,5.11-37.36,5.23-20.65.12-37.4-2.04-37.42-4.81-.02-2.77,16.71-5.11,37.36-5.23,20.65-.12,37.4,2.04,37.42,4.81Z"/>
          <path class="st5" d="M209.38,204.76c.02,2.75-16.57,5.07-37.05,5.19-20.48.12-37.09-2.02-37.11-4.77-.02-2.75,16.57-5.07,37.05-5.19,20.48-.12,37.09,2.02,37.11,4.77Z"/>
          <path class="st172" d="M208.8,204.77c.02,2.73-16.43,5.03-36.74,5.14-20.31.11-36.78-2-36.8-4.73-.02-2.73,16.43-5.03,36.74-5.14,20.31-.11,36.78,2,36.8,4.73Z"/>
          <path class="st136" d="M208.22,204.77c.02,2.7-16.3,4.99-36.43,5.1-20.14.11-36.47-1.99-36.49-4.69-.02-2.7,16.3-4.99,36.43-5.1,20.14-.11,36.47,1.99,36.49,4.69Z"/>
          <path class="st57" d="M207.64,204.77c.02,2.68-16.16,4.94-36.12,5.06-19.97.11-36.16-1.97-36.18-4.65s16.16-4.94,36.12-5.06,36.16,1.97,36.18,4.65Z"/>
          <path class="st164" d="M207.06,204.77c.02,2.66-16.02,4.9-35.81,5.01-19.8.11-35.85-1.95-35.87-4.61s16.02-4.9,35.81-5.01c19.8-.11,35.85,1.95,35.87,4.61Z"/>
          <path class="st161" d="M206.48,204.78c.01,2.63-15.88,4.86-35.51,4.97-19.62.11-35.55-1.94-35.56-4.57-.01-2.63,15.88-4.86,35.51-4.97,19.62-.11,35.55,1.94,35.56,4.57Z"/>
          <path class="st214" d="M205.9,204.78c.01,2.61-15.74,4.82-35.2,4.93-19.45.11-35.24-1.92-35.25-4.53-.01-2.61,15.74-4.82,35.2-4.93,19.45-.11,35.24,1.92,35.25,4.53Z"/>
          <path class="st130" d="M205.33,204.78c.01,2.59-15.61,4.78-34.89,4.88-19.28.11-34.93-1.9-34.94-4.49s15.61-4.78,34.89-4.88c19.28-.11,34.93,1.9,34.94,4.49Z"/>
          <path class="st104" d="M204.75,204.79c.01,2.57-15.47,4.73-34.58,4.84-19.11.11-34.62-1.88-34.63-4.45-.01-2.57,15.47-4.73,34.58-4.84,19.11-.11,34.62,1.88,34.63,4.45Z"/>
          <path class="st220" d="M204.17,204.79c.01,2.54-15.33,4.69-34.27,4.8-18.94.11-34.31-1.87-34.32-4.41-.01-2.54,15.33-4.69,34.27-4.8,18.94-.11,34.31,1.87,34.32,4.41Z"/>
          <ellipse class="st254" cx="169.6" cy="204.98" rx="33.99" ry="4.56" transform="translate(-1.15 .96) rotate(-.32)"/>
          <path class="st88" d="M203.01,204.8c.01,2.5-15.05,4.61-33.65,4.71-18.6.1-33.69-1.83-33.7-4.33-.01-2.5,15.05-4.61,33.65-4.71,18.6-.1,33.69,1.83,33.7,4.33Z"/>
          <path class="st116" d="M202.43,204.8c.01,2.47-14.92,4.56-33.34,4.67-18.43.1-33.38-1.82-33.4-4.29-.01-2.47,14.92-4.56,33.34-4.67,18.43-.1,33.38,1.82,33.4,4.29Z"/>
          <path class="st108" d="M201.85,204.8c.01,2.45-14.78,4.52-33.04,4.62-18.26.1-33.07-1.8-33.09-4.25-.01-2.45,14.78-4.52,33.04-4.63s33.07,1.8,33.09,4.25Z"/>
          <path class="st35" d="M201.27,204.81c.01,2.43-14.64,4.48-32.73,4.58-18.09.1-32.76-1.78-32.78-4.21s14.64-4.48,32.73-4.58c18.09-.1,32.76,1.78,32.78,4.21Z"/>
          <path class="st141" d="M200.7,204.81c.01,2.41-14.5,4.44-32.42,4.54-17.92.1-32.45-1.77-32.47-4.17-.01-2.41,14.5-4.44,32.42-4.54,17.92-.1,32.45,1.77,32.47,4.17Z"/>
          <path class="st31" d="M200.12,204.81c.01,2.38-14.36,4.4-32.11,4.5-17.75.1-32.15-1.75-32.16-4.13-.01-2.38,14.36-4.4,32.11-4.5s32.15,1.75,32.16,4.13Z"/>
          <path class="st135" d="M199.54,204.81c.01,2.36-14.22,4.35-31.8,4.45-17.58.1-31.84-1.73-31.85-4.09-.01-2.36,14.22-4.35,31.8-4.45,17.58-.1,31.84,1.73,31.85,4.09Z"/>
          <path class="st134" d="M198.96,204.82c.01,2.34-14.09,4.31-31.49,4.41-17.41.1-31.53-1.72-31.54-4.05s14.09-4.31,31.49-4.41c17.41-.1,31.53,1.72,31.54,4.05Z"/>
          <path class="st179" d="M198.38,204.82c.01,2.31-13.95,4.27-31.18,4.37-17.24.1-31.22-1.7-31.23-4.01-.01-2.31,13.95-4.27,31.18-4.37,17.24-.1,31.22,1.7,31.23,4.01Z"/>
          <path class="st30" d="M197.8,204.82c.01,2.29-13.81,4.23-30.88,4.32-17.06.1-30.91-1.68-30.92-3.97s13.81-4.23,30.87-4.32c17.06-.1,30.91,1.68,30.92,3.97Z"/>
          <ellipse class="st126" cx="166.63" cy="205" rx="30.59" ry="4.11" transform="translate(-1.15 .94) rotate(-.32)"/>
          <path class="st80" d="M196.64,204.83c.01,2.25-13.53,4.14-30.26,4.24-16.72.09-30.29-1.65-30.3-3.89-.01-2.25,13.53-4.14,30.26-4.24,16.72-.09,30.29,1.65,30.3,3.89Z"/>
          <path class="st204" d="M196.07,204.83c.01,2.22-13.4,4.1-29.95,4.19-16.55.09-29.98-1.63-29.99-3.85-.01-2.22,13.4-4.1,29.95-4.19,16.55-.09,29.98,1.63,29.99,3.85Z"/>
          <path class="st12" d="M195.49,204.84c.01,2.2-13.26,4.06-29.64,4.15-16.38.09-29.67-1.62-29.68-3.81-.01-2.2,13.26-4.06,29.64-4.15s29.67,1.62,29.68,3.81Z"/>
          <path class="st251" d="M194.91,204.84c.01,2.18-13.12,4.01-29.33,4.11-16.21.09-29.36-1.6-29.38-3.78-.01-2.18,13.12-4.01,29.33-4.11,16.21-.09,29.36,1.6,29.38,3.78Z"/>
          <path class="st2" d="M194.33,204.84c.01,2.15-12.98,3.97-29.02,4.06s-29.05-1.58-29.07-3.74c-.01-2.15,12.98-3.97,29.02-4.06,16.04-.09,29.05,1.58,29.07,3.74Z"/>
          <path class="st192" d="M193.75,204.85c.01,2.13-12.84,3.93-28.71,4.02-15.87.09-28.75-1.57-28.76-3.7s12.84-3.93,28.71-4.02c15.87-.09,28.75,1.57,28.76,3.7Z"/>
          <path class="st91" d="M193.17,204.85c.01,2.11-12.71,3.89-28.4,3.98-15.7.09-28.44-1.55-28.45-3.66s12.71-3.89,28.4-3.98c15.7-.09,28.44,1.55,28.45,3.66Z"/>
          <path class="st155" d="M192.59,204.85c.01,2.08-12.57,3.85-28.1,3.93-15.53.09-28.13-1.53-28.14-3.62-.01-2.08,12.57-3.85,28.1-3.93,15.53-.09,28.13,1.53,28.14,3.62Z"/>
          <path class="st87" d="M192.01,204.86c.01,2.06-12.43,3.8-27.79,3.89-15.36.09-27.82-1.51-27.83-3.58-.01-2.06,12.43-3.8,27.79-3.89,15.36-.09,27.82,1.51,27.83,3.58Z"/>
          <path class="st22" d="M191.43,204.86c.01,2.04-12.29,3.76-27.48,3.85-15.19.09-27.51-1.5-27.52-3.54s12.29-3.76,27.48-3.85c15.19-.09,27.51,1.5,27.52,3.54Z"/>
          <path class="st38" d="M190.86,204.86c.01,2.02-12.15,3.72-27.17,3.8-15.02.08-27.2-1.48-27.21-3.5-.01-2.02,12.15-3.72,27.17-3.8s27.2,1.48,27.21,3.5Z"/>
          <path class="st197" d="M190.28,204.86c.01,1.99-12.01,3.68-26.86,3.76-14.85.08-26.89-1.46-26.9-3.46-.01-1.99,12.02-3.68,26.86-3.76,14.85-.08,26.89,1.46,26.9,3.46Z"/>
          <ellipse class="st205" cx="163.13" cy="205.02" rx="26.57" ry="3.57" transform="translate(-1.15 .92) rotate(-.32)"/>
          <path class="st150" d="M189.12,204.87c.01,1.95-11.74,3.59-26.24,3.67s-26.27-1.43-26.28-3.38c-.01-1.95,11.74-3.59,26.24-3.67,14.5-.08,26.27,1.43,26.28,3.38Z"/>
          <path class="st127" d="M188.54,204.87c.01,1.92-11.6,3.55-25.93,3.63-14.33.08-25.96-1.41-25.97-3.34-.01-1.92,11.6-3.55,25.93-3.63,14.33-.08,25.96,1.41,25.97,3.34Z"/>
          <path class="st9" d="M187.96,204.88c.01,1.9-11.46,3.51-25.63,3.59-14.16.08-25.65-1.4-25.67-3.3s11.46-3.51,25.63-3.59,25.65,1.4,25.66,3.3Z"/>
          <path class="st181" d="M187.38,204.88c.01,1.88-11.32,3.47-25.32,3.54-13.99.08-25.35-1.38-25.36-3.26s11.32-3.47,25.32-3.54c13.99-.08,25.35,1.38,25.36,3.26Z"/>
          <path class="st166" d="M186.8,204.88c.01,1.86-11.19,3.42-25.01,3.5s-25.04-1.36-25.05-3.22c-.01-1.86,11.19-3.42,25.01-3.5,13.82-.08,25.04,1.36,25.05,3.22Z"/>
          <path class="st133" d="M186.23,204.89c.01,1.83-11.05,3.38-24.7,3.46-13.65.08-24.73-1.35-24.74-3.18-.01-1.83,11.05-3.38,24.7-3.46,13.65-.08,24.73,1.35,24.74,3.18Z"/>
          <path class="st102" d="M185.65,204.89c.01,1.81-10.91,3.34-24.39,3.41-13.48.08-24.42-1.33-24.43-3.14-.01-1.81,10.91-3.34,24.39-3.41,13.48-.08,24.42,1.33,24.43,3.14Z"/>
          <path class="st68" d="M185.07,204.89c.01,1.79-10.77,3.3-24.08,3.37-13.31.08-24.11-1.31-24.12-3.1-.01-1.79,10.77-3.3,24.08-3.37,13.31-.08,24.11,1.31,24.12,3.1Z"/>
          <path class="st182" d="M184.49,204.9c0,1.76-10.63,3.25-23.77,3.33-13.14.07-23.8-1.3-23.81-3.06,0-1.76,10.63-3.25,23.77-3.33,13.14-.07,23.8,1.3,23.81,3.06Z"/>
          <path class="st225" d="M183.91,204.9c0,1.74-10.5,3.21-23.46,3.28-12.97.07-23.49-1.28-23.5-3.02s10.5-3.21,23.47-3.29c12.97-.07,23.49,1.28,23.5,3.02Z"/>
          <path class="st70" d="M183.33,204.9c0,1.72-10.36,3.17-23.16,3.24s-23.18-1.26-23.19-2.98c0-1.72,10.36-3.17,23.16-3.24s23.18,1.26,23.19,2.98Z"/>
          <path class="st21" d="M182.75,204.91c0,1.7-10.22,3.13-22.85,3.2-12.63.07-22.87-1.25-22.88-2.94,0-1.7,10.22-3.13,22.85-3.2,12.63-.07,22.87,1.25,22.88,2.94Z"/>
          <path class="st14" d="M182.17,204.91c0,1.67-10.08,3.09-22.54,3.16-12.46.07-22.56-1.23-22.57-2.9,0-1.67,10.08-3.09,22.54-3.16s22.56,1.23,22.57,2.9Z"/>
          <path class="st82" d="M181.6,204.91c0,1.65-9.94,3.04-22.23,3.11-12.29.07-22.25-1.21-22.26-2.86,0-1.65,9.94-3.04,22.23-3.11,12.29-.07,22.25,1.21,22.26,2.86Z"/>
          <path class="st115" d="M181.02,204.91c0,1.63-9.81,3-21.92,3.07-12.12.07-21.95-1.19-21.95-2.82,0-1.63,9.81-3,21.92-3.07,12.12-.07,21.95,1.19,21.95,2.82Z"/>
          <path class="st137" d="M180.44,204.92c0,1.6-9.67,2.96-21.61,3.03-11.95.07-21.64-1.18-21.65-2.78,0-1.6,9.67-2.96,21.61-3.03,11.95-.07,21.64,1.18,21.65,2.78Z"/>
          <path class="st158" d="M179.86,204.92c0,1.58-9.53,2.92-21.3,2.98-11.77.07-21.33-1.16-21.34-2.74s9.53-2.92,21.3-2.98c11.77-.07,21.33,1.16,21.34,2.74Z"/>
          <path class="st16" d="M179.28,204.92c0,1.56-9.39,2.87-20.99,2.94-11.6.07-21.02-1.14-21.03-2.7,0-1.56,9.39-2.87,20.99-2.94,11.6-.07,21.02,1.14,21.03,2.7Z"/>
          <path class="st90" d="M178.7,204.93c0,1.53-9.25,2.83-20.69,2.9-11.43.06-20.71-1.13-20.72-2.66,0-1.53,9.25-2.83,20.69-2.9s20.71,1.13,20.72,2.66Z"/>
          <ellipse class="st163" cx="157.73" cy="205.05" rx="20.39" ry="2.74" transform="translate(-1.15 .89) rotate(-.32)"/>
          <path class="st41" d="M177.54,204.93c0,1.49-8.98,2.75-20.07,2.81-11.09.06-20.09-1.09-20.1-2.58s8.98-2.75,20.07-2.81c11.09-.06,20.09,1.09,20.1,2.58Z"/>
          <path class="st10" d="M176.97,204.94c0,1.47-8.84,2.7-19.76,2.77-10.92.06-19.78-1.08-19.79-2.54,0-1.47,8.84-2.7,19.76-2.77,10.92-.06,19.78,1.08,19.79,2.54Z"/>
          <path class="st193" d="M176.39,204.94c0,1.44-8.7,2.66-19.45,2.72-10.75.06-19.47-1.06-19.48-2.5,0-1.44,8.7-2.66,19.45-2.72,10.75-.06,19.47,1.06,19.48,2.5Z"/>
          <path class="st18" d="M175.81,204.94c0,1.42-8.56,2.62-19.14,2.68s-19.16-1.04-19.17-2.46,8.56-2.62,19.14-2.68,19.16,1.04,19.17,2.46Z"/>
          <path class="st190" d="M175.23,204.95c0,1.4-8.42,2.58-18.83,2.64-10.41.06-18.85-1.03-18.86-2.42s8.42-2.58,18.83-2.64c10.41-.06,18.85,1.03,18.86,2.42Z"/>
          <path class="st198" d="M174.65,204.95c0,1.37-8.29,2.54-18.53,2.59-10.24.06-18.55-1.01-18.55-2.38,0-1.37,8.29-2.54,18.53-2.59,10.24-.06,18.55,1.01,18.55,2.38Z"/>
          <path class="st170" d="M174.07,204.95c0,1.35-8.15,2.49-18.22,2.55-10.07.06-18.24-.99-18.24-2.34s8.15-2.49,18.22-2.55c10.07-.06,18.24.99,18.24,2.34Z"/>
          <path class="st43" d="M173.49,204.96c0,1.33-8.01,2.45-17.91,2.51-9.9.06-17.93-.98-17.93-2.3,0-1.33,8.01-2.45,17.91-2.51,9.9-.06,17.93.98,17.93,2.3Z"/>
          <path class="st171" d="M172.91,204.96c0,1.31-7.87,2.41-17.6,2.46-9.73.05-17.62-.96-17.63-2.27,0-1.31,7.87-2.41,17.6-2.46,9.73-.05,17.62.96,17.63,2.27Z"/>
          <path class="st151" d="M172.34,204.96c0,1.28-7.73,2.37-17.29,2.42-9.56.05-17.31-.94-17.32-2.23,0-1.28,7.73-2.37,17.29-2.42,9.56-.05,17.31.94,17.32,2.23Z"/>
          <path class="st209" d="M171.76,204.96c0,1.26-7.6,2.32-16.98,2.38-9.39.05-17-.93-17.01-2.19,0-1.26,7.6-2.32,16.98-2.38,9.39-.05,17,.93,17.01,2.19Z"/>
          <path class="st37" d="M171.18,204.97c0,1.24-7.46,2.28-16.67,2.33-9.21.05-16.69-.91-16.7-2.15,0-1.24,7.46-2.28,16.67-2.33s16.69.91,16.7,2.15Z"/>
          <path class="st99" d="M170.6,204.97c0,1.21-7.32,2.24-16.36,2.29-9.04.05-16.38-.89-16.39-2.11,0-1.21,7.32-2.24,16.36-2.29,9.04-.05,16.38.89,16.39,2.11Z"/>
          <path class="st95" d="M170.02,204.97c0,1.19-7.18,2.2-16.05,2.25-8.87.05-16.07-.88-16.08-2.07s7.18-2.2,16.05-2.25c8.87-.05,16.07.88,16.08,2.07Z"/>
          <path class="st246" d="M169.44,204.98c0,1.17-7.04,2.16-15.75,2.2s-15.76-.86-15.77-2.03,7.04-2.16,15.75-2.2,15.76.86,15.77,2.03Z"/>
          <path class="st187" d="M168.86,204.98c0,1.15-6.91,2.11-15.44,2.16-8.53.05-15.45-.84-15.46-1.99,0-1.15,6.91-2.11,15.44-2.16,8.53-.05,15.45.84,15.46,1.99Z"/>
          <path class="st67" d="M168.28,204.98c0,1.12-6.77,2.07-15.13,2.12-8.36.05-15.15-.82-15.15-1.95,0-1.12,6.77-2.07,15.13-2.12,8.36-.05,15.15.82,15.15,1.95Z"/>
          <ellipse class="st122" cx="152.87" cy="205.07" rx="14.83" ry="1.99" transform="translate(-1.15 .87) rotate(-.32)"/>
          <path class="st8" d="M167.13,204.99c0,1.08-6.49,1.99-14.51,2.03-8.02.05-14.53-.79-14.53-1.87,0-1.08,6.49-1.99,14.51-2.03,8.02-.05,14.53.79,14.53,1.87Z"/>
          <path class="st167" d="M166.55,204.99c0,1.05-6.35,1.94-14.2,1.99-7.85.04-14.22-.77-14.22-1.83,0-1.05,6.35-1.94,14.2-1.99,7.85-.04,14.22.77,14.22,1.83Z"/>
          <path class="st201" d="M165.97,205c0,1.03-6.21,1.9-13.89,1.95-7.68.04-13.91-.76-13.91-1.79s6.21-1.9,13.89-1.95c7.68-.04,13.91.76,13.91,1.79Z"/>
          <path class="st6" d="M165.39,205c0,1.01-6.08,1.86-13.58,1.9-7.51.04-13.6-.74-13.61-1.75,0-1.01,6.08-1.86,13.59-1.9,7.51-.04,13.6.74,13.61,1.75Z"/>
          <path class="st32" d="M164.81,205c0,.99-5.94,1.82-13.28,1.86-7.34.04-13.29-.72-13.3-1.71s5.94-1.82,13.28-1.86,13.29.72,13.3,1.71Z"/>
          <path class="st40" d="M164.23,205c0,.96-5.8,1.77-12.97,1.82-7.17.04-12.98-.71-12.99-1.67s5.8-1.77,12.97-1.82c7.17-.04,12.98.71,12.99,1.67Z"/>
          <path class="st4" d="M163.65,205.01c0,.94-5.66,1.73-12.66,1.77-7,.04-12.67-.69-12.68-1.63s5.66-1.73,12.66-1.77c7-.04,12.67.69,12.68,1.63Z"/>
          <path class="st97" d="M163.07,205.01c0,.92-5.52,1.69-12.35,1.73-6.83.04-12.36-.67-12.37-1.59,0-.92,5.52-1.69,12.35-1.73,6.83-.04,12.36.67,12.37,1.59Z"/>
          <path class="st46" d="M162.5,205.01c0,.89-5.39,1.65-12.04,1.69-6.66.04-12.05-.66-12.06-1.55,0-.89,5.39-1.65,12.04-1.69,6.66-.04,12.05.66,12.06,1.55Z"/>
          <path class="st232" d="M161.92,205.02c0,.87-5.25,1.61-11.73,1.64s-11.75-.64-11.75-1.51,5.25-1.61,11.73-1.64c6.48-.04,11.75.64,11.75,1.51Z"/>
          <ellipse class="st75" cx="149.91" cy="205.09" rx="11.43" ry="1.53" transform="translate(-1.15 .85) rotate(-.32)"/>
          <path class="st50" d="M160.76,205.02c0,.82-4.97,1.52-11.12,1.56-6.14.03-11.13-.61-11.13-1.43,0-.82,4.97-1.52,11.11-1.56,6.14-.03,11.13.61,11.13,1.43Z"/>
          <path class="st153" d="M160.18,205.03c0,.8-4.83,1.48-10.81,1.51-5.97.03-10.82-.59-10.82-1.39s4.83-1.48,10.81-1.51c5.97-.03,10.82.59,10.82,1.39Z"/>
          <path class="st210" d="M159.6,205.03c0,.78-4.7,1.44-10.5,1.47-5.8.03-10.51-.57-10.51-1.35,0-.78,4.7-1.44,10.5-1.47s10.51.57,10.51,1.35Z"/>
          <path class="st239" d="M159.02,205.03c0,.76-4.56,1.39-10.19,1.43-5.63.03-10.2-.56-10.2-1.31,0-.76,4.56-1.39,10.19-1.43,5.63-.03,10.2.56,10.2,1.31Z"/>
          <path class="st48" d="M158.44,205.04c0,.73-4.42,1.35-9.88,1.38s-9.89-.54-9.89-1.27c0-.73,4.42-1.35,9.88-1.38s9.89.54,9.89,1.27Z"/>
          <path class="st233" d="M157.87,205.04c0,.71-4.28,1.31-9.57,1.34-5.29.03-9.58-.52-9.59-1.23,0-.71,4.28-1.31,9.57-1.34,5.29-.03,9.58.52,9.59,1.23Z"/>
          <path class="st120" d="M157.29,205.04c0,.69-4.14,1.27-9.26,1.3-5.12.03-9.27-.5-9.28-1.19,0-.69,4.14-1.27,9.26-1.3s9.27.5,9.28,1.19Z"/>
          <path class="st185" d="M156.71,205.05c0,.66-4.01,1.23-8.95,1.25-4.95.03-8.96-.49-8.97-1.15,0-.66,4-1.23,8.95-1.25,4.95-.03,8.96.49,8.97,1.15Z"/>
          <path class="st226" d="M156.13,205.05c0,.64-3.87,1.18-8.64,1.21-4.78.03-8.65-.47-8.66-1.11s3.87-1.18,8.65-1.21c4.78-.03,8.65.47,8.66,1.11Z"/>
          <path class="st106" d="M155.55,205.05c0,.62-3.73,1.14-8.34,1.17-4.61.03-8.35-.45-8.35-1.07,0-.62,3.73-1.14,8.34-1.17,4.61-.03,8.35.45,8.35,1.07Z"/>
          <path class="st1" d="M154.97,205.05c0,.6-3.59,1.1-8.03,1.12-4.44.02-8.04-.44-8.04-1.03,0-.6,3.59-1.1,8.03-1.12,4.44-.02,8.04.44,8.04,1.03Z"/>
          <path class="st189" d="M154.39,205.06c0,.57-3.45,1.06-7.72,1.08-4.27.02-7.73-.42-7.73-.99,0-.57,3.45-1.06,7.72-1.08,4.27-.02,7.73.42,7.73.99Z"/>
          <path class="st195" d="M153.81,205.06c0,.55-3.31,1.01-7.41,1.04s-7.42-.4-7.42-.95c0-.55,3.31-1.01,7.41-1.04,4.1-.02,7.42.4,7.42.95Z"/>
          <path class="st253" d="M153.24,205.06c0,.53-3.18.97-7.1.99-3.92.02-7.11-.39-7.11-.91,0-.53,3.18-.97,7.1-.99,3.92-.02,7.11.39,7.11.91Z"/>
          <path class="st69" d="M152.66,205.07c0,.5-3.04.93-6.79.95-3.75.02-6.8-.37-6.8-.87,0-.5,3.04-.93,6.79-.95,3.75-.02,6.8.37,6.8.87Z"/>
          <path class="st81" d="M152.08,205.07c0,.48-2.9.89-6.48.91s-6.49-.35-6.49-.83,2.9-.89,6.48-.91c3.58-.02,6.49.35,6.49.83Z"/>
          <path class="st112" d="M151.5,205.07c0,.46-2.76.85-6.17.86-3.41.02-6.18-.34-6.18-.79,0-.46,2.76-.85,6.17-.86,3.41-.02,6.18.34,6.18.79Z"/>
          <path class="st144" d="M150.92,205.08c0,.44-2.62.8-5.87.82s-5.87-.32-5.88-.75,2.62-.8,5.87-.82,5.87.32,5.88.76Z"/>
          <path class="st59" d="M150.34,205.08c0,.41-2.49.76-5.56.78s-5.56-.3-5.57-.72,2.49-.76,5.56-.78c3.07-.02,5.56.3,5.57.72Z"/>
          <path class="st92" d="M149.76,205.08c0,.39-2.35.72-5.25.73s-5.25-.29-5.26-.68c0-.39,2.35-.72,5.25-.73s5.25.29,5.26.68Z"/>
          <path class="st131" d="M149.18,205.09c0,.37-2.21.68-4.94.69-2.73.02-4.95-.27-4.95-.64,0-.37,2.21-.68,4.94-.69,2.73-.02,4.95.27,4.95.64Z"/>
          <path class="st221" d="M148.61,205.09c0,.34-2.07.63-4.63.65-2.56.01-4.64-.25-4.64-.6,0-.34,2.07-.63,4.63-.65,2.56-.01,4.64.25,4.64.6Z"/>
          <path class="st196" d="M148.03,205.09c0,.32-1.93.59-4.32.61-2.39.01-4.33-.24-4.33-.56,0-.32,1.93-.59,4.32-.61,2.39-.01,4.33.24,4.33.56Z"/>
          <path class="st146" d="M147.45,205.1c0,.3-1.8.55-4.01.56-2.22.01-4.02-.22-4.02-.52,0-.3,1.8-.55,4.01-.56s4.02.22,4.02.52Z"/>
          <path class="st20" d="M146.87,205.1c0,.27-1.66.51-3.7.52-2.05.01-3.71-.2-3.71-.48,0-.27,1.66-.51,3.7-.52,2.05-.01,3.71.2,3.71.48Z"/>
          <path class="st174" d="M146.29,205.1c0,.25-1.52.46-3.4.48s-3.4-.19-3.4-.44,1.52-.46,3.4-.48c1.88-.01,3.4.19,3.4.44Z"/>
          <path class="st101" d="M145.71,205.1c0,.23-1.38.42-3.09.43-1.71,0-3.09-.17-3.09-.4s1.38-.42,3.09-.43c1.71,0,3.09.17,3.09.4Z"/>
          <path class="st118" d="M145.13,205.11c0,.21-1.24.38-2.78.39-1.54,0-2.78-.15-2.78-.36,0-.21,1.24-.38,2.78-.39,1.54,0,2.78.15,2.78.36Z"/>
          <path class="st173" d="M144.55,205.11c0,.18-1.1.34-2.47.35s-2.47-.13-2.47-.32c0-.18,1.1-.34,2.47-.35,1.37,0,2.47.13,2.47.32Z"/>
          <path class="st186" d="M143.97,205.11c0,.16-.97.3-2.16.3-1.19,0-2.16-.12-2.16-.28,0-.16.97-.3,2.16-.3,1.19,0,2.16.12,2.16.28Z"/>
          <path class="st247" d="M143.4,205.12c0,.14-.83.25-1.85.26-1.02,0-1.85-.1-1.86-.24,0-.14.83-.25,1.85-.26s1.85.1,1.86.24Z"/>
          <path class="st230" d="M142.82,205.12c0,.11-.69.21-1.54.22s-1.55-.08-1.55-.2c0-.11.69-.21,1.54-.22.85,0,1.55.08,1.55.2Z"/>
          <path class="st208" d="M142.24,205.12c0,.09-.55.17-1.23.17-.68,0-1.24-.07-1.24-.16,0-.09.55-.17,1.23-.17.68,0,1.24.07,1.24.16Z"/>
          <path class="st206" d="M141.66,205.13c0,.07-.41.13-.93.13-.51,0-.93-.05-.93-.12,0-.07.41-.13.93-.13.51,0,.93.05.93.12Z"/>
          <path class="st84" d="M141.08,205.13s-.28.08-.62.09c-.34,0-.62-.03-.62-.08,0-.05.28-.08.62-.09.34,0,.62.03.62.08Z"/>
          <path class="st244" d="M140.5,205.13s-.14.04-.31.04c-.17,0-.31-.02-.31-.04,0-.02.14-.04.31-.04.17,0,.31.02.31.04Z"/>
        </g>
      </g>
      <g>
        <polygon class="st229" points="109.95 105.11 99.77 99.4 94.73 100.82 104.9 106.53 109.95 105.11"/>
        <polygon class="st55" points="107.51 73.37 108.98 78.62 119.16 84.34 117.68 79.08 107.51 73.37"/>
        <polygon class="st3" points="54 77.95 64.18 83.66 62.76 78.62 52.59 72.91 54 77.95"/>
        <polygon class="st162" points="110.81 85.12 113.72 95.48 106.27 97.57 116.44 103.29 123.89 101.19 120.98 90.83 110.81 85.12"/>
        <polygon class="st139" points="60.94 72.12 58.84 64.67 92.71 55.16 82.53 49.45 48.67 58.96 50.76 66.41 60.94 72.12"/>
        <polygon class="st154" points="84.86 103.59 70.88 107.52 66.95 93.53 56.78 87.82 65.16 117.69 95.03 109.3 84.86 103.59"/>
        <polygon class="st199" points="89.03 47.63 99.21 53.34 102.38 55.12 112.56 60.83 107.4 42.47 89.03 47.63"/>
        <polygon class="st132" points="104.21 61.62 105.68 66.87 115.86 72.58 114.38 67.33 104.21 61.62"/>
      </g>
      <g>
        <path class="st52" d="M150.49,105.65h-19.68l7.08-7.08h19.68l-7.08,7.08ZM134.45,104.15h15.43l4.07-4.07h-15.43l-4.07,4.07Z"/>
        <path class="st52" d="M154.35,66.04h-19.68l-7.31-7.31h19.68l7.31,7.31ZM135.29,64.54h15.43l-4.3-4.3h-15.43l4.3,4.3Z"/>
        <path class="st52" d="M81.73,105.65h-19.68l-7.08-7.08h19.68l7.08,7.08ZM62.67,104.15h15.43l-4.07-4.07h-15.43l4.07,4.07Z"/>
        <path class="st52" d="M163.24,92.9h-19.68l8.98-8.98-12.2-12.2h19.68l12.2,12.2-8.98,8.98ZM147.2,91.4h15.43l7.48-7.48-10.7-10.7h-15.42l10.7,10.7-7.48,7.48Z"/>
        <path class="st52" d="M68.98,92.9h-19.68l-8.98-8.98,38.17-38.17h19.68l-38.17,38.17,8.98,8.98ZM49.92,91.4h15.42l-7.48-7.48,36.67-36.67h-15.43l-36.67,36.67,7.48,7.48Z"/>
        <path class="st52" d="M106.27,149.88l-34.82-34.82h19.68l15.14,15.14,15.14-15.14h19.68l-34.82,34.82ZM75.08,116.56l31.19,31.19,31.19-31.19h-15.43l-15.76,15.76-15.76-15.76h-15.42Z"/>
        <path class="st52" d="M128.38,40.07h-44.22l22.11-22.11,22.11,22.11ZM87.79,38.57h36.96l-18.48-18.48-18.48,18.48Z"/>
        <path class="st52" d="M141.37,53.06h-19.68l-7.31-7.31h19.68l7.31,7.31ZM122.31,51.55h15.43l-4.3-4.3h-15.43l4.3,4.3Z"/>
      </g>
      <g class="st240">
        <path class="st74" d="M354.02,60.94h0,0s-.03-.07-.04-.11c-.01-.03-.02-.05-.03-.08-.01-.03-.02-.05-.03-.08-.4-.95-1.02-1.75-1.79-2.2l-.22-.13h0s-26.41-15.25-26.41-15.25l-26.41-15.25h0s-.22-.13-.22-.13c-.77-.44-1.54-.45-2.18-.1-.02,0-.03.02-.05.03-.02,0-.03.02-.05.03l-3.49,2.01,2.01.85-6.98,36.98c-.18.95-.02,2.01.38,2.95.01.03.02.05.03.08.01.02.02.05.03.07.4.95,1.02,1.75,1.79,2.2l52.68,30.43-.49,2.32,3.3-1.91s.03-.02.05-.03c.64-.34,1.13-1.02,1.31-1.98l7.14-37.87c.17-.92.03-1.93-.34-2.85Z"/>
        <g>
          <path class="st42" d="M340.19,105.57l-53.26-30.76c-1.61-.93-2.59-3.43-2.18-5.57l7.04-37.33c.41-2.15,2.04-3.14,3.65-2.21l53.26,30.76c1.61.93,2.59,3.43,2.18,5.57l-7.04,37.33c-.41,2.15-2.04,3.14-3.65,2.21Z"/>
          <path class="st60" d="M348.48,60.34l-26.41-15.25-8.28,43.88,26.18,16.48c1.73,1,3.44.19,3.82-1.81l7.14-37.87c.38-2-.72-4.43-2.45-5.43Z"/>
          <path class="st17" d="M295.66,29.83l26.41,15.25-8.22,43.6-26.7-13.75c-1.73-1-2.83-3.43-2.45-5.43l7.14-37.87c.38-2,2.09-2.81,3.82-1.81Z"/>
          <path class="st76" d="M285.03,72.35c.43,1.08,1.18,2.04,2.12,2.58l52.82,30.51c.94.54,1.86.55,2.58.13l-23.67-43.6-33.85,10.38Z"/>
          <path class="st110" d="M350.59,62.92c-.43-1.08-1.18-2.04-2.12-2.58l-52.82-30.51c-.94-.54-1.86-.55-2.58-.13l23.67,43.6,33.85-10.38Z"/>
        </g>
      </g>
      <g>
        <path class="st224" d="M107.3,93.05h0,0c.04-.09.07-.18.11-.27.03-.06.05-.13.08-.19.03-.07.06-.13.09-.2,1.01-2.4,2.58-4.42,4.52-5.55l.55-.32h0s66.72-38.54,66.72-38.54L246.09,9.45h0s.55-.32.55-.32c1.94-1.12,3.89-1.13,5.52-.25.05.02.09.05.13.07.04.03.09.05.13.07l8.81,5.08-5.08,2.15,17.62,93.42c.45,2.41.05,5.07-.96,7.46-.03.07-.06.13-.08.2-.03.06-.05.13-.08.19-1.01,2.4-2.58,4.43-4.52,5.55l-133.07,76.86,1.23,5.86-8.34-4.83s-.09-.05-.13-.07c-1.63-.87-2.85-2.59-3.31-5l-18.04-95.66c-.44-2.32-.08-4.87.85-7.19Z"/>
        <g>
          <path class="st123" d="M142.24,205.79l134.54-77.71c4.07-2.35,6.54-8.65,5.51-14.08l-17.78-94.29c-1.02-5.43-5.15-7.92-9.22-5.57L120.75,91.85c-4.07,2.35-6.54,8.65-5.51,14.08l17.78,94.29c1.02,5.43,5.15,7.92,9.22,5.57Z"/>
          <path class="st152" d="M121.3,91.53l66.72-38.54,20.91,110.85-66.14,41.63c-4.37,2.53-8.69.48-9.64-4.57l-18.04-95.66c-.95-5.05,1.82-11.19,6.19-13.72Z"/>
          <path class="st183" d="M254.74,14.46l-66.72,38.54,20.78,110.15,67.44-34.74c4.37-2.53,7.14-8.67,6.19-13.72l-18.04-95.66c-.95-5.05-5.27-7.1-9.64-4.57Z"/>
          <path class="st85" d="M281.58,121.88c-1.09,2.73-2.98,5.16-5.34,6.52l-133.44,77.07c-2.36,1.36-4.7,1.38-6.51.33l59.79-110.15,85.51,26.23Z"/>
          <path class="st188" d="M115.96,98.06c1.09-2.73,2.98-5.16,5.34-6.52L254.74,14.46c2.36-1.36,4.7-1.38,6.51-.33l-59.79,110.15-85.51-26.23Z"/>
        </g>
      </g>
      <g>
        <rect class="st52" x="294.55" y="127" width="19" height="3.08"/>
        <rect class="st52" x="317.92" y="127" width="19" height="3.08"/>
        <path class="st52" d="M311.15,137.83h-16.66v-4.03h16.66v4.03ZM295.44,136.88h14.75v-2.12h-14.75v2.12Z"/>
        <rect class="st52" x="294.55" y="141.37" width="5.15" height="3.08"/>
      </g>
    </g>
  </g>
</svg>